<?xml version="1.0" encoding="utf-8"?>
<!-- Generator: Adobe Illustrator 22.0.1, SVG Export Plug-In . SVG Version: 6.00 Build 0)  -->
<svg version="1.1" id="Слой_1" xmlns="http://www.w3.org/2000/svg" xmlns:xlink="http://www.w3.org/1999/xlink" x="0px" y="0px"
	 viewBox="0 0 306.3 52.3" style="enable-background:new 0 0 306.3 52.3;" xml:space="preserve">
<style type="text/css">
	.st0{fill:#404041;}
</style>
<g id="Слой_1_1_">
	<g>
		<path class="st0" d="M272.2,2.8h4.7l-7.2,10.8h-2.1L272.2,2.8z"/>
		<path class="st0" d="M2.7,8.8v-1c0.4-0.1,0.7-0.1,0.9-0.2l3-0.2C9.2,7.3,12,7.1,15.2,7c1.3,0,3.2-0.1,5.9-0.1
			c3.7,0,6.4,0.3,8.1,0.8c2.5,0.8,4.3,2,5.6,3.6s1.8,3.4,1.8,5.4c0,3.2-2.3,5.9-6.9,8.1L29.6,25c2.3,0.6,4.3,1.5,5.7,2.6
			c1.5,1.1,2.6,2.5,3.4,4.1c0.6,1.2,0.9,2.7,0.9,4.7c0,3.2-1.5,6.1-4.4,8.6s-7,3.8-12.1,3.8h-4.8L13.4,49c-4.3,0-6.9,0.1-7.6,0.1
			c-0.8,0-1.5,0-2.2-0.1v-0.4c0-0.3,0.1-0.5,0.2-0.6c0.1-0.1,0.4-0.2,0.7-0.3c2.7-0.6,4.2-0.9,4.6-1.1c0.4-0.2,0.6-0.5,0.7-1
			c0.3-0.9,0.4-3.1,0.4-6.7c0-0.3,0-0.7,0-1.2c0-1.5-0.1-2.3-0.1-2.5v-3.4c0-5.7-0.1-10.7-0.2-14.9v-6.5V9.6C8,9.3,6.3,9.1,4.9,9.1
			C4,9.1,3.3,9,2.7,8.8z M15.6,25.2c1.1,0.2,2.2,0.3,3.4,0.3c4.7,0,7.9-1,9.5-3.1c1.7-2.1,2.5-4.1,2.5-6.1c0-0.9-0.1-1.8-0.4-2.8
			c-0.3-0.9-0.8-1.8-1.6-2.5c-0.7-0.8-1.7-1.3-2.8-1.7c-1.9-0.6-3.8-0.9-5.8-0.9c-1.8,0-3.6,0.2-5.1,0.6c0,0.5,0,0.8,0,1
			s0,0.8,0.1,1.9c0,0.6,0,1.3,0,1.9l-0.1,3.9V20l0.2,4.6L15.6,25.2z M23.2,47.3c2.1-0.1,3.9-0.6,5.4-1.4c0.7-0.3,1.5-1,2.4-1.9
			s1.6-2,2.1-3.2c0.5-1.3,0.8-2.5,0.8-3.6c0-0.9-0.2-2-0.5-3.3c-0.4-1.3-1-2.4-1.8-3.4c-0.9-1-2.1-1.8-3.8-2.4s-3.6-1-5.6-1
			c-3.9,0-6.2,0.1-6.6,0.2c0,0.5,0,0.9,0,1.1v1.2V32v2.8c0.1,5.1,0.2,8.1,0.4,9c0.2,0.9,0.8,1.7,1.8,2.4
			C18.6,46.9,20.5,47.3,23.2,47.3z"/>
		<path class="st0" d="M43.9,27.9c0-2.2,0.2-4.2,0.7-5.9s1.3-3.6,2.5-5.6s2.6-3.7,4.2-5c1.6-1.4,3.9-2.5,6.8-3.6
			C60.2,7,62.8,6.7,66,6.7c2.1,0,4.2,0.3,6.2,0.9s3.9,1.4,5.5,2.5c1.7,1.1,3.3,2.8,4.9,5c1.1,1.6,2,3.2,2.6,5
			c0.8,2.4,1.1,4.8,1.1,7.3c0,2.9-0.3,5.2-0.8,7.1c-0.5,1.9-1.4,3.7-2.6,5.6C82,41.5,80.3,43.2,78,45c-1.5,1.3-3.4,2.3-5.7,3
			c-2.3,0.8-4.7,1.1-7.4,1.1c-2.7,0-5.1-0.3-7.2-1c-2.1-0.7-3.8-1.5-5.2-2.4c-1.4-1-2.8-2.4-4.3-4.3c-1.5-1.9-2.6-4-3.4-6.2
			C44.3,33,43.9,30.6,43.9,27.9z M64.8,48.1c1.7,0,3.4-0.3,5.3-0.8s3.4-1.4,4.8-2.5c1.4-1.2,2.5-2.5,3.3-4s1.4-3.4,1.9-5.8
			c0.5-2.4,0.7-4.7,0.7-7.1c0-2.9-0.4-5.9-1.2-8.7C79,17,78,15,76.6,13.3s-3.1-3.1-5.1-4c-2-0.9-4.1-1.4-6.4-1.4
			c-1.8,0-3.6,0.3-5.4,1c-1.8,0.6-3.2,1.5-4.3,2.5s-2.2,2.4-3.1,4.3c-1,1.9-1.7,3.9-2.2,6.1s-0.8,4.2-0.8,5.9c0,1.8,0.3,3.8,0.8,6.1
			s1.2,4.2,2.1,5.9c0.9,1.7,2,3.1,3.2,4.4c1.3,1.3,2.7,2.3,4.3,3C61.3,47.7,63,48.1,64.8,48.1z"/>
		<path class="st0" d="M127.4,9.4l0.3,4.9c0.1,1.5,0.2,2.5,0.2,3l-0.8,0.2c-1.3-3.3-2.9-5.8-4.9-7.4c-1.9-1.6-4.3-2.5-7.1-2.5
			c-3.4,0-6.1,0.5-8,1.4c-2.8,1.3-5.1,3.6-7.1,6.9s-2.9,7.2-2.9,11.8c0,2.7,0.4,5,1.1,7.2c0.7,2.1,1.7,4.1,3.1,5.9
			c1.3,1.8,2.9,3.4,4.7,4.8c1.2,0.9,2.6,1.6,4.2,2c0.9,0.2,2.3,0.4,4.1,0.4c1.2,0,2.5-0.2,3.9-0.6c1.4-0.4,2.5-0.9,3.2-1.5
			s1.2-1.3,1.5-2.1s0.4-2.3,0.4-4.5c0-3.7-0.2-5.9-0.7-6.5c-0.4-0.6-1.9-1-4.2-1.2l-1.2-0.1h-0.8c-0.1,0-0.3-0.1-0.5-0.1l-0.4-0.8
			c0-0.1,0.1-0.2,0.2-0.4c1-0.2,3.2-0.3,6.6-0.3c0.8,0,2,0,3.7,0.1l3,0.1h2.7c0.5,0,1.2,0,1.9,0.1c0.1,0,0.2,0.1,0.3,0.1
			c0,0.1,0.1,0.1,0.1,0.3c0,0.2-0.1,0.5-0.1,0.9c-0.8,0.2-1.4,0.3-1.9,0.3h-1.9c-0.6,0-1.2,0.2-1.5,0.7c-0.2,0.2-0.3,1.1-0.3,2.4
			v4.2c0,2.9-0.1,4.8-0.3,5.6c-0.1,0.5-0.4,0.9-0.7,1.3c-0.4,0.4-1.1,0.8-2.3,1.3c-1.7,0.8-3.2,1.3-4.6,1.5
			c-2.6,0.5-5.1,0.7-7.5,0.7c-3.9,0-7-0.5-9.5-1.6s-4.6-2.6-6.4-4.6c-1.8-1.9-3.1-3.9-3.8-5.9c-1.2-2.9-1.7-5.9-1.7-8.9
			c0-3.8,0.9-7.5,2.7-11.1c1.8-3.6,4.7-6.6,8.7-8.8c2.8-1.6,6.7-2.4,11.5-2.4c3.4,0,6.1,0.3,8.2,1C124.5,7.9,126.2,8.6,127.4,9.4z"
			/>
		<path class="st0" d="M131,47.9c0.3-0.2,0.6-0.3,0.9-0.3h0.8c0.2,0,0.5,0,0.9,0c1.8-0.2,2.9-0.3,3.3-0.5c0.8-0.4,1.6-1.1,2.2-2.1
			c1.2-2.2,2.7-5.3,4.2-9.4c0.7-1.9,1.2-3.1,1.4-3.5c0.6-1.3,1.2-2.7,1.7-4.1l3.4-8.5c0.5-1.3,1.8-4.4,3.8-9.2
			c0.5-1.2,1.1-2.8,1.8-4.9l1.1-0.1h1.3c1,1.8,1.9,3.8,2.7,5.9c0.4,1.1,1.1,2.8,2.1,5l5.5,13.3l2.9,7.2c1.5,4.1,2.5,6.6,3,7.6
			c0.5,0.9,0.9,1.6,1.3,1.9c0.1,0.1,0.6,0.2,1.4,0.4c0.8,0.2,1.3,0.3,1.6,0.4c1.1,0.3,1.9,0.5,2.3,0.7c0.1,0.2,0.1,0.4,0.1,0.5
			s0,0.3-0.1,0.5c-0.8,0-1.3,0-1.6,0c-1.2,0-3.4,0-6.5-0.1l-3.6-0.1l-4.4,0.1c-0.3,0-0.6,0-0.9,0c-0.3,0-0.6,0-0.8,0H162
			c-0.3,0-0.5-0.1-0.7-0.2c0-0.3,0.1-0.6,0.2-0.9c0.3-0.1,0.6-0.2,0.8-0.2l3.8-0.2c1,0,1.7-0.2,2.2-0.4c0.1-0.4,0.2-0.7,0.2-0.9
			c0-0.4-0.3-1.4-0.9-3c-0.4-1.1-0.8-2.1-1.1-3.1s-1.6-4.2-3.8-9.6c-1-0.1-1.8-0.2-2.6-0.2l-7.7,0.1h-2.3c-0.8,0-1.7,0.1-2.7,0.2
			c-0.3,0.6-0.5,1.1-0.6,1.4l-3.2,8.9c-1.3,3.4-2,5.3-2,5.6c0,0.2,0.1,0.5,0.3,1c0.5,0.1,1.2,0.2,2,0.4l4.9,0.4
			c0.3,0.2,0.4,0.4,0.4,0.5s0,0.3-0.1,0.5c-1.1,0-1.9,0-2.5,0c-1.9,0-4.2-0.1-6.7-0.2c-1.2,0-2-0.1-2.5-0.1s-1.4,0-2.6,0.1
			c-0.8,0-1.4,0.1-1.8,0.1c-0.6,0-1.3,0-2.2-0.1v-0.2C130.8,48.3,130.9,48.1,131,47.9z M148.2,28.4c2.6,0.1,5.5,0.2,8.8,0.2
			c1.9,0,3.5-0.1,4.9-0.2c-0.2-0.8-0.5-1.6-0.8-2.4c-1.6-3.8-2.4-5.8-2.6-6.2l-3.3-7.5l-0.4-0.6c-0.1,0.3-0.7,1.4-1.6,3.3
			c-1.5,3.4-2.6,6-3.3,7.9c-0.3,0.8-0.6,1.7-1,2.5c-0.3,0.8-0.5,1.4-0.6,1.8c-0.1,0.3-0.2,0.7-0.4,1L148.2,28.4z"/>
		<path class="st0" d="M180.8,12.3l1.3-4.9c0.1-0.7,0.2-1.1,0.4-1.3c0.1-0.2,0.3-0.3,0.5-0.3c0.4,0,0.8,0.5,1.3,1.4
			c0.4,0.7,0.7,1.1,0.9,1.3s0.6,0.3,1,0.4h0.3L188,9l7.7,0.1h9.1h2.7l5-0.1c0.2,0,0.5,0,0.8,0.1c1.5,0.1,2.4,0.2,2.7,0.2
			s0.6-0.1,0.8-0.3c0.1-0.1,0.4-0.8,1.1-2.1c0.3-0.6,0.6-0.9,1-0.9c0.2,0,0.4,0,0.6,0.1c0.1,0.4,0.2,0.8,0.2,1.2v1.3v2.7
			c0,0.7-0.1,2.8-0.2,6.4c0,0.2,0,0.4-0.1,0.6c-0.2,0.1-0.4,0.2-0.6,0.2c-0.2,0-0.3-0.1-0.5-0.2c-0.1-0.2-0.3-0.7-0.5-1.5
			c-0.4-1.9-1-3.3-1.6-4.2c-0.4-0.5-1.1-0.9-1.9-1.2c-0.8-0.2-2.8-0.4-5.8-0.4c-2.5,0-4.3,0-5.5,0c0,0.9-0.1,1.7-0.1,2.4l0.3,20.2
			c0,0.8,0,2.3-0.1,4.5v4.3v2.4c0,0.8,0.1,1.3,0.4,1.6c0.3,0.3,1,0.6,2.1,0.9c2,0.5,3.3,0.8,4,0.9c0.4,0,0.7,0.1,1,0.3v1l-4.6-0.1
			c-2.5,0-4.4-0.1-5.7-0.1l-4.7,0.2l-3.5,0.2c-1,0-1.6,0-1.8-0.1l-0.5-0.2c0-0.5,0.1-0.8,0.3-1c0.1-0.1,0.6-0.3,1.2-0.3
			c0.9-0.1,2-0.4,3.2-0.7s2-0.7,2.4-1c0.2-0.2,0.4-0.5,0.5-1c0.2-0.9,0.3-2.8,0.3-5.6v-5.5l-0.1-12l-0.1-2.6V11c-1.4,0-3.1,0-5.2,0
			c-3.1,0-5,0.2-5.7,0.6c-1.1,0.6-2.6,2.3-4.7,5.2c-0.7,1.1-1.3,1.6-1.8,1.6l-0.3-0.1c-0.1-0.1-0.1-0.2-0.1-0.4c0-0.3,0.2-1,0.5-2.3
			C180.4,14,180.7,12.9,180.8,12.3z"/>
		<path class="st0" d="M224.7,48.5c0.2-0.2,0.4-0.3,0.6-0.3c0.4-0.1,1-0.2,1.9-0.3c2.1-0.1,3.4-0.3,3.9-0.6c0.3-0.4,0.5-1,0.5-1.8
			v-2.3v-8.3l-0.1-3.9v-8.2l-0.2-9.3c0-2.2-0.2-3.5-0.4-3.7c-0.4-0.4-1.5-0.6-3.5-0.7c-0.8,0-1.5-0.1-2.2-0.2
			c-0.3-0.1-0.4-0.3-0.4-0.6c0-0.2,0.1-0.4,0.2-0.6c0.2-0.1,0.4-0.2,0.5-0.2c0.3,0,0.7,0,1.1,0c1.3,0.1,2.6,0.2,4,0.2l2.4-0.1
			l5.7,0.1c2.9,0,5.1,0,6.7-0.1c1.6-0.1,2.7-0.1,3.2-0.1s1.7,0,3.7,0.1h4.6l0.5,0.1l2.7-0.1l0.3,0.2c0.1,0.2,0.2,0.4,0.2,0.6
			c0,0.3,0,0.8-0.1,1.4c-0.1,0.6-0.1,1-0.1,1.2c0,2.3,0.1,4.2,0.2,5.7c0,0.1-0.1,0.2-0.2,0.3c-0.2,0-0.4,0-0.6-0.1
			c-0.2-0.4-0.6-1.1-1-2.2c-0.4-1-1-2.2-1.8-3.6c-0.5-0.9-1-1.4-1.3-1.6c-0.3-0.2-0.9-0.3-1.9-0.3c-0.2,0-1.2,0-3-0.1
			c-0.5,0-0.9,0-1.4,0l-9.3,0.2h-0.8c-1.2,0-1.9,0.2-2.1,0.5c-0.4,0.5-0.6,2-0.6,4.6c0,0.3,0.1,2.9,0.2,7.8v4.5
			c0.2,0.1,0.5,0.1,0.8,0.1h0.6c0.4,0,0.9,0,1.6,0c1.1,0,1.9,0.1,2.3,0.1c0.3,0,0.5,0,0.7,0c2.3-0.1,5.3-0.1,9-0.1
			c1.1-0.2,1.8-0.4,2-0.7c0.3-0.4,0.6-1.4,0.7-3c0.2-1.6,0.5-2.6,1.1-2.8c0.3,0,0.5,0.1,0.8,0.2c0,0.2,0.1,0.3,0.1,0.5
			c0,0.1,0,0.4-0.1,0.7c-0.1,0.8-0.2,3.3-0.2,7.5c0,1.1,0.1,2.4,0.2,3.8s0.2,2.1,0.2,2.2c0,0.2,0,0.5-0.1,0.8
			c-0.2,0.1-0.3,0.1-0.4,0.1H256c-0.3-0.6-0.7-1.5-1-2.8c-0.6-2.2-1.2-3.6-1.8-4.1s-1.6-0.8-3-0.8c-0.3,0-0.9,0-1.7,0.1
			c-0.8,0-2,0-3.6,0h-2.1c-3,0-5,0.1-5.9,0.2v1.1v6v3.8v3.7c0,2.2,0.2,3.5,0.4,3.8c0.4,0.5,1.2,0.7,2.4,0.7h2c0.2,0,0.8,0,2,0
			s2.6,0.1,4.4,0.1c4.2,0,7-0.2,8.3-0.5c1.4-0.4,2.5-1,3.4-1.9s2-2.9,3.4-5.9c0.4-0.9,0.8-1.3,1.2-1.3c0.2,0,0.4,0.1,0.6,0.3
			c-0.6,2.1-1,3.5-1.1,4.2c-0.2,1.5-0.4,3.1-0.4,4.6c0,0.7-0.2,1.3-0.5,1.8h-0.7l-9.1,0.1h-4.1l-9.7,0.1h-4c-0.5,0-1,0-1.4,0
			c-3.9,0.2-6.8,0.3-8.6,0.3c-0.3,0-0.5-0.1-0.7-0.2c-0.1-0.1-0.2-0.3-0.2-0.5L224.7,48.5z"/>
		<path class="st0" d="M299.8,8.9c0.2,1.4,0.3,2.3,0.3,2.5l-0.1,2.9c0,1.2-0.1,2-0.2,2.4c-0.2,0.1-0.4,0.1-0.5,0.1l-0.3-0.1
			c-0.7-3-2-5.2-3.7-6.6c-1.8-1.4-3.9-2.1-6.4-2.1c-2.6,0-4.8,0.7-6.5,2.1s-2.5,3-2.5,4.8c0,1.4,0.6,2.7,1.8,3.9
			c1.2,1.2,4.2,2.9,9,5.2c3.7,1.8,6.3,3.3,7.9,4.4s2.8,2.5,3.6,3.9c0.8,1.5,1.2,3.2,1.2,5c0,2.3-0.6,4.5-1.9,6.5s-3,3.6-5.2,4.6
			s-5,1.5-8.6,1.5c-3.1,0-6.1-0.5-8.9-1.4c-1.7-0.6-2.7-1-3.1-1.4c-0.4-0.3-0.6-0.7-0.6-1.1c0-0.2,0-0.5,0.1-0.9
			c0.3-2.6,0.5-4.7,0.5-6.3c0-1,0.1-1.6,0.2-1.8s0.3-0.2,0.5-0.2s0.4,0.1,0.5,0.2c0.1,0.1,0.2,0.4,0.3,0.8c0.3,2.7,1.6,5,3.9,7.1
			s5,3.1,8,3.1c1.8,0,3.5-0.4,5-1.1c1.5-0.7,2.7-1.8,3.6-3.1c0.9-1.4,1.3-2.7,1.3-3.9c0-1.8-0.7-3.4-2-4.8c-1.3-1.4-3.9-3.1-7.9-5.1
			c-4-1.9-6.5-3.4-7.7-4.2c-1.9-1.4-3.4-3-4.3-4.6c-0.7-1.3-1.1-2.7-1.1-4.4c0-3,1.3-5.6,3.8-7.6c2.5-2.1,5.9-3.1,10.2-3.1
			c2.3,0,4.4,0.3,6.1,0.8C297.2,7.3,298.5,8,299.8,8.9z"/>
	</g>
</g>
</svg>
