<?xml version="1.0" encoding="utf-8"?>
<!-- Generator: Adobe Illustrator 22.0.1, SVG Export Plug-In . SVG Version: 6.00 Build 0)  -->
<svg version="1.1" id="Слой_1" xmlns="http://www.w3.org/2000/svg" xmlns:xlink="http://www.w3.org/1999/xlink" x="0px" y="0px"
	 viewBox="0 0 70.6 50" style="enable-background:new 0 0 70.6 50;" xml:space="preserve">
<title>gray-es</title>
<path d="M32.4,27.2h-10v-5.6h11.2v-5H16.3v27.1h17.3v-5H22.4v-6.5h10V27.2L32.4,27.2z M35.8,42.4c2.4,1.1,5,1.7,7.7,1.7
	c7.5,0,11-3.9,11-8.4s-2.3-6.3-7-8.1s-5-2.1-5-3.8s1.3-2.6,3.9-2.6c1.9,0,3.8,0.4,5.6,1.2l1.4-5c-2.2-1-4.5-1.4-6.9-1.4
	c-6.4,0-10.3,3.5-10.3,8.2s3,6.4,7.5,8c4.5,1.6,4.6,2.1,4.6,3.8s-1.5,3-4.3,3c-2.4,0-4.7-0.6-6.8-1.7L35.8,42.4z"/>
<path d="M18.3,5.4C11.4,8.5,5.2,12.9,0,18.5c3.7-2.9,7.7-5.4,12-7.3c20.9-9.6,43.3-6,50.1,8.1c4.4,9.1,1.1,20.3-7.3,29.8
	c13-10.3,18.9-24.5,13.6-35.6C61.6-0.6,39.2-4.2,18.3,5.4z"/>
<path d="M7.3,20.6h0.6v-1h0.2c0.2,0,0.4,0.2,0.4,0.4l0.2,0.6h0.6l-0.2-0.7c0-0.2-0.2-0.4-0.4-0.5l0,0C9,19.3,9.2,19,9.2,18.7
	c0-0.2-0.1-0.4-0.2-0.5C8.7,18,8.4,18,8.1,18H7.3V20.6L7.3,20.6z M7.9,18.4h0.3c0.2,0,0.4,0.2,0.4,0.4c0,0.2-0.2,0.4-0.4,0.4H8.1
	H7.9V18.4L7.9,18.4z"/>
<path d="M10.1,21.2c-1.1,1-2.8,1-3.8,0s-1-2.8,0-3.8s2.8-1,3.8,0c0.5,0.5,0.8,1.2,0.8,1.9C10.9,20,10.6,20.7,10.1,21.2L10.1,21.2z
	 M8.2,21.5c1.2,0,2.2-1,2.2-2.2s-1-2.2-2.2-2.2S6,18.1,6,19.3c0,0.6,0.2,1.1,0.6,1.5C7,21.2,7.6,21.5,8.2,21.5z"/>
</svg>
