<svg id="Слой_1" data-name="Слой 1" xmlns="http://www.w3.org/2000/svg" width="132.3" height="60" viewBox="0 0 132.3 60"><title>logo</title><path d="M30.1,60a1.8,1.8,0,0,1-1.3-.5L0.6,31.3a1.8,1.8,0,0,1,0-2.6L28.8,0.5a1.8,1.8,0,0,1,2.6,0L49.9,19.1H49.3l-0.2-.2L31.1,0.8a1.4,1.4,0,0,0-2,0L0.9,29a1.4,1.4,0,0,0,0,2L29.1,59.2a1.4,1.4,0,0,0,2,0L49.2,41h53l-0.6.4H49.4l-18,18a1.8,1.8,0,0,1-1.3.5" style="fill:#e01b22"/><path d="M42.3,14L31.1,2.9a1.5,1.5,0,0,0-2.1,0L17.9,14a1.5,1.5,0,0,0,0,2.1L29.1,27.2a1.5,1.5,0,0,0,2.1,0L42.3,16.1A1.5,1.5,0,0,0,42.3,14Zm-1.4,2L31,25.8a1.3,1.3,0,0,1-1.8,0h0a1.3,1.3,0,0,0,1.2-.4l9.9-9.9a1.3,1.3,0,0,0,0-1.8L30.4,3.9,31,4.2l9.9,9.9A1.3,1.3,0,0,1,40.9,15.9Z" style="fill:#e01b22"/><path d="M42.3,43.7L31.1,32.6a1.5,1.5,0,0,0-2.1,0L17.9,43.7a1.5,1.5,0,0,0,0,2.1L29.1,56.9a1.5,1.5,0,0,0,2.1,0L42.3,45.8a1.5,1.5,0,0,0,0-2.1m-1.4,2L31,55.5a1.3,1.3,0,0,1-1.8,0h0a1.3,1.3,0,0,0,1.2-.4l9.9-9.9a1.3,1.3,0,0,0,0-1.8l-9.9-9.9L31,33.9l9.9,9.9a1.3,1.3,0,0,1,0,1.8" style="fill:#e01b22"/><polygon points="93.9 42.8 53 42.8 52.5 42.2 94.4 42.2 93.9 42.8" style="fill:#e01b22"/><path d="M13.4,34.8L13,34.6v0.3h0.4" style="fill:#e01b22"/><path d="M14.6,26.7c0.3,0-.4-0.7.2-1.4a0.8,0.8,0,0,1,1.4.6c-0.1.7-.9,0.2-0.5,0s-0.4-.7-0.5,0a0.7,0.7,0,0,0,.7.7,0.9,0.9,0,0,0,.6-0.4V26.1a1.2,1.2,0,0,0,0-.3,4.2,4.2,0,0,0-2.8-3.4,3,3,0,0,0-4,2,1,1,0,0,0,.5,1.3c0.3,0,0-.3.2-0.5a0.3,0.3,0,0,1,.4-0.1l-0.6-.6s0-.1.3,0a0.8,0.8,0,0,0,.8-0.3,1.4,1.4,0,0,1,1.9.2,1.6,1.6,0,0,1-.4,2c-0.2.3-.5,0.6-0.4,0.7a3.3,3.3,0,0,1,2.1-.2" style="fill:#e01b22"/><path d="M24.2,29.8a0.6,0.6,0,0,0-1.1-.5,0.4,0.4,0,0,0,.2.8,1,1,0,0,0,.3-0.1c0.1,0.1.1,0.4-.3,0.5a0.7,0.7,0,0,1-.8-0.2c0-.1-0.1-0.2-0.4.3H22.2l0.3,0.2a1.2,1.2,0,0,0,1.8-1" style="fill:#e01b22"/><path d="M17.1,25.5h0a1.6,1.6,0,0,1-.4,1.3H16.6l-0.4.2c-0.2.1-.4,0.2,0.1,0.5a3.3,3.3,0,0,1,.9,3.1l-0.2.5a0.7,0.7,0,0,1,.9.3,0.6,0.6,0,0,1-.4.9,0.2,0.2,0,0,1,0-.4s0.2-.2,0-0.3a0.4,0.4,0,0,0-.6.3,0.8,0.8,0,0,0,.2.6h0c0.3,0.2,1.9.1,2.4-1.7a8.1,8.1,0,0,0-1.8-6.4c-1.5-1.7-1-.4-0.7.1a2.1,2.1,0,0,1,.2.9" style="fill:#e01b22"/><path d="M11.7,31.9c0.1-.2.5-0.3,0.4,0.2S12,33.6,14,34.3a3.8,3.8,0,0,0,4-1c0.3-.4-0.2,0-0.9-0.2a1,1,0,0,1-.5-1.2,2.1,2.1,0,0,1-1,.5,1.7,1.7,0,0,1-2.1-1,1.7,1.7,0,0,1,.6-2,0.5,0.5,0,0,0-.2-0.8,0.2,0.2,0,0,1-.3-0.3c0-.2,0-0.2-0.1-0.2a0.3,0.3,0,0,1-.2-0.3,0.5,0.5,0,0,0-.4-0.2c-0.2,0,.3-0.4.9-0.3a1.5,1.5,0,0,1,.9,1v0.3a0.8,0.8,0,0,1,1-.2,0.8,0.8,0,0,1,.5,1.1c-0.1.1-.2,0.1-0.2,0s0.1-.3-0.1-0.3a0.5,0.5,0,0,1-.3-0.2,0.9,0.9,0,0,1-.5.2c-0.3.1,0.4,0.3,0.6,0.6a1.2,1.2,0,0,1-.2,1.7c-0.2.1-.3,0.1-0.2-0.1s-0.1-.4-0.1-0.5,0.1-.3-0.1-0.3-0.3-.1-0.3-0.2,0.1-.6-0.4-0.5a1,1,0,0,0-.5,1.6c0.6,0.9,2.1.5,2.6-.7a2.8,2.8,0,0,0-4.5-3c-1.5,1.1-1.1,3-.9,3.8s0.4,0.4.5,0.2" style="fill:#e01b22"/><path d="M27.4,28.9L16.3,17.7a1.5,1.5,0,0,0-2.1,0L3.1,28.9a1.5,1.5,0,0,0,0,2.1L14.2,42.1a1.5,1.5,0,0,0,2.1,0L27.4,30.9a1.5,1.5,0,0,0,0-2.1M11.5,37.7a2.7,2.7,0,0,1-1.9-2.6,1.8,1.8,0,0,1,1.2-1.6c-0.2.1-.8,0.2-0.8-0.1a0.9,0.9,0,0,1,.8-0.5c0.4-.1,0-0.4-0.4-1.1a11.5,11.5,0,0,0-1.8-2.7,0.9,0.9,0,0,0-1.4.6,0.7,0.7,0,0,0,.8.8s-0.3,0-.2-0.4a0.5,0.5,0,0,1,.6-0.3s0.4-.4.6-0.2a0.5,0.5,0,0,1,.1.6,0.3,0.3,0,0,1,0,.5,0.5,0.5,0,0,1-.5.1l-0.3.2H7.7c-1.3,0-1.4-2.5.2-2.5s2.3,1.8,2.4,2,0.2,0.2.2-.2h0a4.3,4.3,0,0,1,.2-1.4h0l0.2-.5a16,16,0,0,1,1.6-2.6c0.6-.9.3-1.4,0.1-1.4a0.7,0.7,0,0,0-.8.6,0.7,0.7,0,0,0,.2.6c0.1,0.1-.2.2-0.4-0.1l-0.2-.4s-0.1,0-.1.2a0.7,0.7,0,0,1-1.1.6c-0.8-.2-1-1.8-0.3-2.8s1.8-2.2,4.7-1.3a8,8,0,0,1,5.1,5.1,10.5,10.5,0,0,0,2.3,3.2l0.2-.3c0.1-.2.2-0.5,0.1-0.5a0.5,0.5,0,0,1-.7-0.4c-0.1-.4.2-0.6,0.2-0.5s0,0.3.4,0.4,0.6-.5,1.4-0.5a1.2,1.2,0,0,1,.9,2A1.8,1.8,0,0,1,22,31c-0.2.4-.3,0.7,0,0.7s0.3,0.5-.2.5a0.5,0.5,0,0,1-.4-0.5c-0.2.1-.6,0-0.6-0.3a0.2,0.2,0,0,1,.3-0.1c0,0.1.2,0.2,0.4-.1l0.3-.4h0a10.6,10.6,0,0,1-1.4-1.6c-0.3-.4-0.2.1-0.2,0.4h0a8.5,8.5,0,0,1-.9,4.1c-0.2.6-.4,1.3-0.1,1.4s0.4-.2.3-0.4,0.4-.2.5,0.3a0.6,0.6,0,0,1-1.2.2c-0.4-.7.4-1.8-0.2-1.3A5.2,5.2,0,0,1,14.8,35H14.7l0.4,0.5a0.6,0.6,0,0,0,.8.3,1.5,1.5,0,0,1,1.7-.3c0.7,0.5.6,0.6-.2,0.5s-1.5.3-2.4,1.4-2.4.7-3.5,0.4m14.5-6.9-9.9,9.9a1.3,1.3,0,0,1-1.8,0h0a1.3,1.3,0,0,0,1.2-.4l9.9-9.9a1.3,1.3,0,0,0,0-1.8l-9.9-9.9,0.7,0.4L26.1,29a1.3,1.3,0,0,1,0,1.8" style="fill:#e01b22"/><path d="M13.6,35.3a0.5,0.5,0,0,0,.1,1,0.9,0.9,0,0,0,.5-0.2c0.3,0.4,0,.8-0.6.8a1,1,0,0,1-1-.9,0.9,0.9,0,0,1-1.5-.6c0-.5.3-0.7,0.3-0.4a0.5,0.5,0,0,0,.7.6c0.6,0,.4-0.8,0-1.3a1.1,1.1,0,0,0-1.9.9c0,1.5,1.8,2.3,3,2.3a1.4,1.4,0,0,0,1.6-1.2,0.9,0.9,0,0,0-1-1" style="fill:#e01b22"/><path d="M51.9,38.5V38.3a0.7,0.7,0,0,1-.1-0.3V27.5H43.6l-1.7,3.1h0.2l0.5-.4,0.3-.2H49v6.4H44.6a11.3,11.3,0,0,1-2.8-.3,5.2,5.2,0,0,1-1.9-.9,5.8,5.8,0,0,1-1.8-2.3,7.9,7.9,0,0,1-.6-3.2,7.6,7.6,0,0,1,.6-3.1A6.6,6.6,0,0,1,40,24.3a4.8,4.8,0,0,1,1.8-.9,10.5,10.5,0,0,1,2.7-.3h4.9a0.3,0.3,0,0,1,.1.3h0v0.2h0.2l1.7-3.1H44.5l-2.9.2-1.8.6L38,22.5a8.9,8.9,0,0,0-1.4,1.6,9.2,9.2,0,0,0-1.4,2.7,10.8,10.8,0,0,0-.5,3.2,9.6,9.6,0,0,0,.8,4A8.2,8.2,0,0,0,37.9,37a8,8,0,0,0,2.7,1.5,14.4,14.4,0,0,0,4.1.4h7.6V38.8ZM50.5,20.9h0.4L49.8,23H49.5Zm-7.4,8.8H42.7V29.6H49v0.2H43.2Zm-5.6,3.2a8.2,8.2,0,0,1-.6-3.3,8,8,0,0,1,.6-3.2,6.9,6.9,0,0,1,1.9-2.5,5.2,5.2,0,0,1,2-1,10.8,10.8,0,0,1,2.8-.3h4.6l0.5,0.2H44.5a10.9,10.9,0,0,0-2.8.3,5.2,5.2,0,0,0-2,1,6.9,6.9,0,0,0-1.9,2.5,8,8,0,0,0-.6,3.2,8.2,8.2,0,0,0,.6,3.3,6.2,6.2,0,0,0,1.9,2.4L40.5,36l-1-.6a6.2,6.2,0,0,1-1.9-2.4m7.1,5.8a14.2,14.2,0,0,1-4-.4l-1.4-.6,1.1,0.5a14.1,14.1,0,0,0,4,.4h7l-0.2-.3a1,1,0,0,1-.1-0.4v-10h0.3V38a1,1,0,0,0,.1.4l0.2,0.3h-7Z" style="fill:#e01b22"/><path d="M66.1,28.5a7.3,7.3,0,0,0-9.6,0A6,6,0,0,0,54.7,33a6,6,0,0,0,1.8,4.5,7.4,7.4,0,0,0,9.6,0A6,6,0,0,0,68,33a6,6,0,0,0-1.9-4.5m-9.6,4.4a4.3,4.3,0,0,1,1.2-3.2,4.6,4.6,0,0,1,3.3-1.2,4.9,4.9,0,0,1,2.5.6,5.1,5.1,0,0,0-2.2-.5A4.6,4.6,0,0,0,58,29.8,4.3,4.3,0,0,0,56.8,33,4.3,4.3,0,0,0,58,36.3l0.8,0.6-1.1-.8a4.4,4.4,0,0,1-1.2-3.2m8-2.8a4,4,0,0,1,1.2,3,4,4,0,0,1-1.2,3,4.8,4.8,0,0,1-6.2,0,4,4,0,0,1-1.2-3,4,4,0,0,1,1.2-3,4.8,4.8,0,0,1,6.2,0m1.5,7.3A6.4,6.4,0,0,1,61.4,39a6.9,6.9,0,0,1-3.4-.8,7.1,7.1,0,0,0,3.1.6,6.4,6.4,0,0,0,4.6-1.7,5.7,5.7,0,0,0,1.8-4.3,5.6,5.6,0,0,0-1.8-4.3l-1.2-.9a5.8,5.8,0,0,1,1.5,1A5.6,5.6,0,0,1,67.7,33a5.7,5.7,0,0,1-1.8,4.3" style="fill:#e01b22"/><path d="M73.3,27V24.2H73.2l-1.9,2.6-2,2.2v0.2H71V38a0.8,0.8,0,0,1,0,.3v0.2l-0.3.3V39h3.3V38.8l-0.3-.3V38.3a0.7,0.7,0,0,1,0-.3V29.2h0.8a0.4,0.4,0,0,1,.1.3v0.2h0.2L75.7,27H73.3Zm-0.6-1.6L73,25v2.2H72.7V25.4Zm-1.7,3.5H69.8l0.2-.2h1.1v0.2Zm2.9,0H73V38a1.1,1.1,0,0,0,.1.4l0.2,0.3H71.1V38.5H73l-0.2-.3a1.1,1.1,0,0,1-.1-0.4V28.7h0.9l0.4,0.2H73.9m0.5,0.2h0l-0.3-.2,0.7-1.6h0.4Z" style="fill:#e01b22"/><path d="M80.5,27V24.2H80.4l-1.9,2.6-2,2.2v0.2h1.9V38a0.7,0.7,0,0,1,0,.3v0.2l-0.3.3V39H81V38.8l-0.3-.3V38.3a0.7,0.7,0,0,1,0-.3V29.2h0.8a0.4,0.4,0,0,1,.1.3v0.2h0.2L82.9,27H80.5Zm-0.6-1.6,0.3-.4v2.2H79.9V25.4Zm-1.7,3.5H77l0.2-.2h1.1v0.2Zm2.9,0H80.2V38a1,1,0,0,0,.1.4l0.2,0.3H78.3V38.5h1.7L80,38.2a1.1,1.1,0,0,1-.1-0.4V28.7h0.9l0.4,0.2H81.1m0.5,0.2h0l-0.3-.2L82,27.3h0.4Z" style="fill:#e01b22"/><path d="M87.6,27.7V27.5l0.3-.3V27H84.8v0.2l0.3,0.3V38a0.8,0.8,0,0,1,0,.3v0.2l-0.3.3V39h3.3V38.8l-0.3-.3V38.3a0.7,0.7,0,0,1,0-.3V27.7M87.3,38.4l0.2,0.3H85.4V38.5h1.7L87,38.2a1.1,1.1,0,0,1-.1-0.4v-10a0.9,0.9,0,0,1,.1-0.4h0.5l-0.2.3a0.9,0.9,0,0,0-.1.4V38a1,1,0,0,0,.1.4" style="fill:#e01b22"/><path d="M87.5,23.1a1.5,1.5,0,0,0-2.1,0,1.4,1.4,0,0,0-.4,1,1.5,1.5,0,1,0,2.9,0,1.4,1.4,0,0,0-.4-1m-0.2,1.8a1.1,1.1,0,0,1-.8.3L85.8,25h0.4a1.1,1.1,0,0,0,.8-0.3,1.1,1.1,0,0,0,.3-0.8,1.1,1.1,0,0,0-.3-0.8H86.8l0.4,0.3a1.1,1.1,0,0,1,.3.8,1.1,1.1,0,0,1-.3.8" style="fill:#e01b22"/><path d="M101.2,33.6A6.5,6.5,0,0,0,98,31.7L95.4,31q-2.4-.6-2.4-1.2a0.5,0.5,0,0,1,.3-0.5h6.8a0.4,0.4,0,0,1,.1.3v0.2h0.2l1.3-2.8H94.7a4.7,4.7,0,0,0-2.9.8,2.5,2.5,0,0,0-.7,3.5,2.6,2.6,0,0,0,1.2,1l2.2,0.6,2.1,0.5A5.5,5.5,0,0,1,99,34.6a2.5,2.5,0,0,1,.6,1.8v0.5h-9l-1,2.2h12.6V36.8a4.8,4.8,0,0,0-1-3.2m-0.3-6.3h0.4l-0.8,1.7-0.3-.2ZM93,28.9l1.2-.2h5.5l0.4,0.2H94.5l-1.2.2a0.8,0.8,0,0,0-.5.8,1,1,0,0,0,.6.8,1.2,1.2,0,0,1-.9-1,0.8,0.8,0,0,1,.5-0.8m3.7,4.3-2.1-.5L92.4,32l-0.3-.2h0l2.2,0.6L96.4,33l2,0.7-1.7-.6m5.2,5.5H90.1V38.5h11.4V36.6a4.5,4.5,0,0,0-1-3,4.9,4.9,0,0,0-1.4-1.1,5.1,5.1,0,0,1,1.7,1.3,4.5,4.5,0,0,1,1,3v1.9Z" style="fill:#e01b22"/><path d="M101.5,25.6a1.4,1.4,0,1,1,1.4-1.4,1.4,1.4,0,0,1-1.4,1.4m0-2.7a1.2,1.2,0,1,0,1.2,1.2,1.2,1.2,0,0,0-1.2-1.2m0.3,2-0.4-.6h-0.2v0.6H101V23.3h0.5a0.5,0.5,0,0,1,.5.5,0.4,0.4,0,0,1-.3.4l0.4,0.7h-0.3Zm-0.3-1.4h-0.3v0.6h0.3a0.3,0.3,0,1,0,0-.6" style="fill:#e01b22"/><path d="M53.2,47.9V45.6a0.6,0.6,0,0,0-.1-0.4H52.3V44.6h2.8v0.5H54.3a0.6,0.6,0,0,0-.1.4v2.3a2.1,2.1,0,0,0,1.1-.2,1.4,1.4,0,0,0,.5-0.8l0.2-.9a3.5,3.5,0,0,1,.2-0.9l0.4-.5,0.7-.2a1.2,1.2,0,0,1,.9.3,1,1,0,0,1,.3.8,0.7,0.7,0,0,1-.2.5l-0.5.2L57.3,46a0.5,0.5,0,0,1-.2-0.4,0.7,0.7,0,0,1,.1-0.4V45H57.2q-0.5,0-.7,1.1v0.3a3.9,3.9,0,0,1-.4,1.3,1.2,1.2,0,0,1-.6.5,2.1,2.1,0,0,1,1,.4,1.8,1.8,0,0,1,.6.9,8.2,8.2,0,0,1,.2,1q0.2,1.1.6,1.1l0.3-.2a1.1,1.1,0,0,0,.1-0.5h0.4a1.4,1.4,0,0,1-.3,1,1.1,1.1,0,0,1-.9.3q-1.2,0-1.4-2V49.7a1.8,1.8,0,0,0-.4-1,1.4,1.4,0,0,0-1-.3H54.2v2.7a0.6,0.6,0,0,0,.1.4h0.8v0.5H52.3V51.6h0.8a0.5,0.5,0,0,0,.1-0.4V48.4H52.7a1.2,1.2,0,0,0-.9.3,1.9,1.9,0,0,0-.4,1v0.6q-0.3,2-1.4,2a1.1,1.1,0,0,1-.9-0.4,1.5,1.5,0,0,1-.3-1h0.4a1.1,1.1,0,0,0,.1.5l0.3,0.2q0.4,0,.6-1.1a8.1,8.1,0,0,1,.2-1,1.8,1.8,0,0,1,.6-0.9,2.1,2.1,0,0,1,1-.4l-0.5-.3-0.3-.4L51,46.8h0v-1a0.8,0.8,0,0,0-.2-0.5l-0.4-.2H50v0.2a0.7,0.7,0,0,1,.1.4,0.5,0.5,0,0,1-.2.4l-0.5.2L49.1,46a0.8,0.8,0,0,1-.2-0.5,0.9,0.9,0,0,1,.3-0.7,1.3,1.3,0,0,1,.9-0.3l0.7,0.2a1.1,1.1,0,0,1,.4.5,3.6,3.6,0,0,1,.2.9l0.2,0.9a1.4,1.4,0,0,0,.5.8A2,2,0,0,0,53.2,47.9Z" style="fill:#e01b22"/><path d="M63,48.1a0.5,0.5,0,0,0-.1-0.3H62.2V47.3h2.6v0.4H64a0.5,0.5,0,0,0-.1.3v3.1a0.5,0.5,0,0,0,.1.3h0.7v0.4H62.2V51.6h0.8a0.5,0.5,0,0,0,.1-0.3V48.9l-2.2,2.2h0a0.4,0.4,0,0,0,.1.3h0.7v0.4H59.1V51.6h0.8a0.5,0.5,0,0,0,.1-0.3V48.1a0.5,0.5,0,0,0-.1-0.3H59.1V47.3h2.6v0.4H60.9a0.5,0.5,0,0,0-.1.3v2.4L63,48.3h0Z" style="fill:#e01b22"/><path d="M65.8,47.1H66l0.3,0.4,0.6-.3h0.6a1.8,1.8,0,0,1,1.1.3,1.1,1.1,0,0,1,.4.9,1,1,0,0,1-.3.7,1.6,1.6,0,0,1-.9.4,1.6,1.6,0,0,1,1,.4,1.1,1.1,0,0,1,.4.9,1.2,1.2,0,0,1-.6,1.1,2.7,2.7,0,0,1-1.6.4,2.2,2.2,0,0,1-1.3-.3,1,1,0,0,1-.5-0.9,0.8,0.8,0,0,1,.2-0.6l0.5-.2h0.4a0.5,0.5,0,0,1,.2.4,0.4,0.4,0,0,1-.2.4l-0.2.2a0.4,0.4,0,0,0,.3.3H67a1.3,1.3,0,0,0,.9-0.3,1,1,0,0,0,.3-0.8,1,1,0,0,0-.3-0.8,1.3,1.3,0,0,0-.9-0.2H66.8V49.3H67a1.2,1.2,0,0,0,.8-0.2,0.9,0.9,0,0,0,.3-0.7,0.9,0.9,0,0,0-.2-0.6l-0.6-.2a1.1,1.1,0,0,0-.8.4,1.9,1.9,0,0,0-.5,1H65.7V47.1Z" style="fill:#e01b22"/><path d="M73.9,48.1a0.5,0.5,0,0,0-.1-0.3H73V47.3h2.6v0.4H74.9a0.5,0.5,0,0,0-.1.3v3.1a0.5,0.5,0,0,0,.1.3h0.7v0.4H73V51.6h0.8a0.5,0.5,0,0,0,.1-0.3V49.8H71.7v1.4a0.5,0.5,0,0,0,.1.3h0.8v0.4H69.9V51.6h0.8a0.5,0.5,0,0,0,.1-0.3V48.1a0.5,0.5,0,0,0-.1-0.3H69.9V47.3h2.6v0.4H71.8a0.5,0.5,0,0,0-.1.3v1.2h2.2V48.1Z" style="fill:#e01b22"/><path d="M78,49.3h1a2.6,2.6,0,0,1,1.5.4,1.2,1.2,0,0,1,.5,1,1.3,1.3,0,0,1-.5,1.1,2.2,2.2,0,0,1-1.4.4H76.2V51.6H77a0.5,0.5,0,0,0,.1-0.3V48.1a0.5,0.5,0,0,0-.1-0.3H76.2V47.3h2.6v0.4H78.1a0.5,0.5,0,0,0-.1.3v1.1Zm0,0.4v1.6a0.5,0.5,0,0,0,.1.3h0.7a1.5,1.5,0,0,0,.9-0.2,0.8,0.8,0,0,0,.3-0.7,0.9,0.9,0,0,0-.3-0.8,2,2,0,0,0-1.1-.2H78Z" style="fill:#e01b22"/><path d="M88.5,50.7a2.5,2.5,0,0,1-.8,1.1,1.9,1.9,0,0,1-1.2.4,2.1,2.1,0,0,1-1.6-.7,2.6,2.6,0,0,1-.6-1.8,2.7,2.7,0,0,1,.7-1.9,2.2,2.2,0,0,1,1.7-.7,2,2,0,0,1,1.2.3,1,1,0,0,1,.5.8,0.8,0.8,0,0,1-.2.5l-0.5.2-0.4-.2a0.5,0.5,0,0,1-.2-0.4,0.6,0.6,0,0,1,.2-0.4l0.2-.2a0.3,0.3,0,0,0-.2-0.2H86.7a1.1,1.1,0,0,0-1,.5,3,3,0,0,0-.3,1.6,2.6,2.6,0,0,0,.4,1.5,1.2,1.2,0,0,0,1.1.5,1.2,1.2,0,0,0,.8-0.3,1.9,1.9,0,0,0,.5-0.8Z" style="fill:#e01b22"/><path d="M91.3,47.1a2.2,2.2,0,0,1,1.7.7,3,3,0,0,1,0,3.7,2.3,2.3,0,0,1-3.3,0,3,3,0,0,1,0-3.7A2.2,2.2,0,0,1,91.3,47.1Zm0,0.4a1,1,0,0,0-1,.5,4.5,4.5,0,0,0,0,3.3,1,1,0,0,0,.9.5,1,1,0,0,0,1-.5,4.5,4.5,0,0,0,0-3.3A1,1,0,0,0,91.3,47.5Z" style="fill:#e01b22"/><path d="M99.9,47.3a2.4,2.4,0,0,1,1.3.3,1.1,1.1,0,0,1,.1,1.6,1.7,1.7,0,0,1-.9.4,2,2,0,0,1,1.1.4,1,1,0,0,1,.4.9,1.1,1.1,0,0,1-.5.9,2.3,2.3,0,0,1-1.4.3H97.1V51.6h0.8a0.5,0.5,0,0,0,.1-0.3V48.1a0.5,0.5,0,0,0-.1-0.3H97.1V47.3h2.8Zm-0.3.4H99a0.5,0.5,0,0,0-.1.3v1.3h0.5l1-.2a0.8,0.8,0,0,0,.3-0.7,0.7,0.7,0,0,0-.3-0.6Zm-0.7,2.1v1.5a0.5,0.5,0,0,0,.1.3h0.7l0.9-.2a0.8,0.8,0,0,0,.3-0.7,0.9,0.9,0,0,0-.3-0.8,2,2,0,0,0-1.1-.2H98.9Z" style="fill:#e01b22"/><path d="M102.6,52.1V51.6h0.8a0.5,0.5,0,0,0,.1-0.3V48.1a0.5,0.5,0,0,0-.1-0.3h-0.8V47.3h2.6v0.4h-0.8a0.5,0.5,0,0,0-.1.3v1.2h0.3l0.7-.2a1,1,0,0,0,.3-0.6V48.3a1.1,1.1,0,0,1,1-1.2l0.6,0.2a0.7,0.7,0,0,1,.2.6,0.6,0.6,0,0,1-.1.4l-0.4.2h-0.4a0.4,0.4,0,0,1-.1-0.3V47.6h-0.1q-0.3,0-.5.8h0a1.5,1.5,0,0,1-.6,1.2l0.7,0.3a1.2,1.2,0,0,1,.4.6V51q0.1,0.7.4,0.7h0.2a0.9,0.9,0,0,0,.1-0.4h0.3v0.2a1.2,1.2,0,0,1-.2.8,0.8,0.8,0,0,1-.7.3q-0.8,0-1-1.3V50.6a1.2,1.2,0,0,0-.3-0.7l-0.6-.2h-0.5v1.5a0.5,0.5,0,0,0,.1.3h0.8v0.4h-2.6Z" style="fill:#e01b22"/><path d="M110.3,51.9l-1.6-3.8-0.3-.3h-0.5V47.3h2.4v0.4h-0.6v0.2h0v0.2l1.1,2.5,1-2.5h0.1a0.3,0.3,0,0,0-.1-0.3h-0.6V47.3h2v0.4h-0.5l-0.3.4-1.7,4.1a4.4,4.4,0,0,1-.9,1.5,1.6,1.6,0,0,1-1.1.4l-0.7-.2a0.7,0.7,0,0,1-.3-0.6,0.6,0.6,0,0,1,.2-0.4l0.4-.2h0.4a0.5,0.5,0,0,1,.1.4v0.2h0.1a1,1,0,0,0,.6-0.4,4.7,4.7,0,0,0,.7-1.2V51.9Z" style="fill:#e01b22"/><path d="M117.7,50.7a2.5,2.5,0,0,1-.8,1.1,1.9,1.9,0,0,1-1.2.4,2.1,2.1,0,0,1-1.6-.7,2.6,2.6,0,0,1-.6-1.8,2.7,2.7,0,0,1,.7-1.9,2.2,2.2,0,0,1,1.7-.7,2,2,0,0,1,1.2.3,1,1,0,0,1,.5.8,0.8,0.8,0,0,1-.2.5l-0.5.2-0.4-.2a0.5,0.5,0,0,1-.2-0.4,0.6,0.6,0,0,1,.2-0.4l0.2-.2a0.3,0.3,0,0,0-.2-0.2h-0.5a1.1,1.1,0,0,0-1,.5,3,3,0,0,0-.3,1.6,2.6,2.6,0,0,0,.4,1.5,1.2,1.2,0,0,0,1.1.5,1.2,1.2,0,0,0,.8-0.3,1.9,1.9,0,0,0,.5-0.8Z" style="fill:#e01b22"/><path d="M120.5,47.1a2.2,2.2,0,0,1,1.7.7,3,3,0,0,1,0,3.7,2.3,2.3,0,0,1-3.3,0,3,3,0,0,1,0-3.7A2.2,2.2,0,0,1,120.5,47.1Zm0,0.4a1,1,0,0,0-1,.5,4.6,4.6,0,0,0,0,3.3,1,1,0,0,0,.9.5,1,1,0,0,0,1-.5,4.6,4.6,0,0,0,0-3.3A1,1,0,0,0,120.5,47.5Z" style="fill:#e01b22"/><path d="M123.3,52.1V51.6h0.8a0.5,0.5,0,0,0,.1-0.3V48.1a0.5,0.5,0,0,0-.1-0.3h-0.8V47.3h1.9l1.3,3.6,1.3-3.6h2v0.4H129a0.5,0.5,0,0,0-.1.3v3.1a0.5,0.5,0,0,0,.1.3h0.8v0.4h-2.5V51.6H128a0.5,0.5,0,0,0,.1-0.3V47.8l-1.5,4.3h-0.4l-1.6-4.3v3.5a0.5,0.5,0,0,0,.1.3h0.8v0.4h-2Z" style="fill:#e01b22"/><path d="M131.4,50.1v-1a16.8,16.8,0,0,0-.2-2.4q-0.2-1.2-.2-1.4a1.1,1.1,0,0,1,.2-0.7l0.5-.2a0.6,0.6,0,0,1,.5.2,1.1,1.1,0,0,1,.2.7q0,0.2-.2,1.4a16.5,16.5,0,0,0-.2,2.4v1h-0.4Zm0.2,0.9,0.4,0.2a0.6,0.6,0,0,1,.2.5,0.6,0.6,0,0,1-.2.5l-0.4.2-0.5-.2a0.6,0.6,0,0,1,0-.9Z" style="fill:#e01b22"/></svg>