<svg id="Слой_1" data-name="Слой 1" xmlns="http://www.w3.org/2000/svg" width="88.7" height="60" viewBox="0 0 88.7 60"><title>logo</title><path d="M70.9,19.1H70.7a28.4,28.4,0,0,0-52.4,0H18.2a28.5,28.5,0,0,1,52.6,0h0Z" style="fill:#231f20"/><path d="M72.9,20.5H63.4V19.8h8.5a29.3,29.3,0,0,0-54.8,0h8.7v0.7H16.1l0.2-.5a30,30,0,0,1,56.5,0Z" style="fill:#231f20"/><path d="M44.5,58.6A28.5,28.5,0,0,1,18.2,41h0.1a28.4,28.4,0,0,0,52.4,0h0.1A28.5,28.5,0,0,1,44.5,58.6Z" style="fill:#231f20"/><path d="M44.5,60A30,30,0,0,1,16.3,40l-0.2-.5h9.5v0.7H17.1a29.3,29.3,0,0,0,54.8,0H63.2V39.6h9.7l-0.2.5A30,30,0,0,1,44.5,60Z" style="fill:#231f20"/><path d="M65.5,15.5a0.8,0.8,0,0,0-.4-0.8c-1.1-.6-1.3.8-2,1.2H62.4a3,3,0,0,1-2.5-2.7c0-.3.5-1,0.8-0.7a1.8,1.8,0,0,0,.4.8,1,1,0,0,0,1.5-1,2.8,2.8,0,0,0-.2-0.6,4,4,0,0,1,.2-0.6,1.2,1.2,0,0,0-1.1-1.1c-0.1,0-.6,0-0.5.2a0.9,0.9,0,0,1,.4.3c0.3,0.7-.8.9-1.3,0.7a5.6,5.6,0,0,1-1.2-.9l-0.7-.4-0.6-.3c0.2-.3.8-0.2,0.8-1V8l0.2-.3a1.2,1.2,0,0,0-.3-1.3,1,1,0,0,0-.8-0.1c-0.6.1,0.5,0.5-.1,1a1.1,1.1,0,0,1-.9.2c-1.3-.1-1.6-0.9-2-2a0.9,0.9,0,0,0,.1-1.2l-0.4-.3-0.2-.4a0.9,0.9,0,0,0-.8-0.4c-1.6,0,0,.4-0.9,1.2a3.9,3.9,0,0,1-1.3.5,5.4,5.4,0,0,0-1.5.7,5.3,5.3,0,0,0-.6.7,3.8,3.8,0,0,0-.8.5,4,4,0,0,1-.6,1,2.2,2.2,0,0,0-.7,1.5,1.5,1.5,0,0,0,.4.4,0.9,0.9,0,0,0,.4.6c0.4,0.2.4-1.2,1.3-1.2s0.5,0.1.4,0.3-0.9.4-.3,0.6h0.2c0.3,0,1.3-.1,1.3-0.5s-0.5-.3-0.3-0.5a1.1,1.1,0,0,1,.5-0.3l0.3-.2c0.3-.1.3,0.4,0.3,0.6s-4.2,1.9-4.4,4.8c-0.1.7,1,1.1,0.1,1.6a0.8,0.8,0,0,1-1.1-.6,2.9,2.9,0,0,0,.4-0.6,0.7,0.7,0,0,0-.6-0.3,1,1,0,0,0-.7,1.8,4.4,4.4,0,0,0,.8.6l0.2,0.4a1.4,1.4,0,0,0,1.2.5c0.6,0,1.1-.5.8-1.1a7.1,7.1,0,0,0,.7-0.7h1.4l1.7-.5c0.4,0,1.2.4,1,.8s-0.6,0-.8-0.1-0.7.3-.7,0.7a0.9,0.9,0,0,0,.4.6c1,0.8,1.4-.1,2.2-0.1h0.8a4.1,4.1,0,0,0,.6-0.6,2.8,2.8,0,0,0,1.1.5h0.9a1.3,1.3,0,0,0,1.3-.1,0.7,0.7,0,0,0,.3-0.5,1.1,1.1,0,0,0-.4-0.8V14.6c0.8,0.2.8,0.5,1.2,1.1A4.2,4.2,0,0,0,62.7,17l1.3-.2,0.7-.2h0.2c0.4,0,.8.3,0.5,0.6l-0.4.3c0,0.2.1,0.2,0.2,0.2a1.2,1.2,0,1,0,.3-2.3h0Zm0,2.1,0.2-.5c0.1-.4-0.4-0.6-0.8-0.6a5.7,5.7,0,0,0-1.3.3,4.8,4.8,0,0,1-2.5-.2,3.7,3.7,0,0,1-1.6-1.3l-0.3-.5a3.1,3.1,0,0,1-.9-0.5c-0.4-.4-0.4-1-1-1.3l0.3,0.4a2.4,2.4,0,0,1,.5,1.9,6.6,6.6,0,0,0-.6.6c0,0.1.1,0.4,0.2,0.3s-0.1-.4.3-0.4a0.4,0.4,0,0,1,.5.5c0,0.5-.9.6-1.3,0.4l-0.4-.2H56.5a1,1,0,0,1-1.2-1.3l0.3-.4c0.2-.1.3,0.5,0.5,0.6a0.7,0.7,0,0,0,1.1-.3V14.5c0-1.1-1.2-1.3-1.2-2.1s1.2-.4,1.6-0.3l0.6,0.4,0.5,0.6c0.2,0,.2-0.2.1-0.3a2.1,2.1,0,0,0-2.1-2.2c-1.7,0-2.5,1.3-3.6,2.4l-0.6.6-0.5.2c-0.2.1-.3,0.3,0,0.4s0-.2.2-0.2a1.8,1.8,0,0,1,1.5.9c0.3,0.5-.2.6-0.1,0.9s0.3,0.4.3,0.2a0.8,0.8,0,0,1-.1-0.4c0.1-.5.7-0.2,0.9,0.1a0.7,0.7,0,0,1,.1.5c-0.1.7-1,.3-1.3,0.5a3,3,0,0,1-1,.4H52.1c-0.3-.1-0.8-0.8-0.5-1.1s0.8,0.8,1.3,0a0.8,0.8,0,0,0-.6-1.1c-0.8-.3-2.2.4-3.1,0.5H48.5c-0.1,0-.1.4-0.4,0.6s-1.1.2-1.1,0.6a0.1,0.1,0,0,0,.2.1c0.1-.1.1-0.5,0.5-0.2l0.2,0.2c0.1,0.4-.4.6-0.7,0.6a1,1,0,0,1-1-.5,1.7,1.7,0,0,0-.1-0.3c-0.2-.2-0.5-0.1-0.7-0.3S44.8,14,46,14s-0.2.4-.2,0.7a0.9,0.9,0,0,0,1.3.8,1,1,0,0,0,.6-0.8,2,2,0,0,1-.4-0.8V13.5a1.3,1.3,0,0,1,.3-0.9c0.9-1.7,3.3-2.1,4-3.3S51.5,8.4,51.2,8s-0.4-.7-0.8-0.5-0.7.7,0,.7V7.9c0.1-.3.6-0.3,0.6,0s-0.3.5-.6,0.7-0.2.6,0.1,0.8a0.8,0.8,0,0,1-.9.3l0.2-.5c0.1-.4-0.5-0.6-0.7-0.5a1.8,1.8,0,0,0-1.1,1.2,0.2,0.2,0,0,1-.2-0.2c-0.1-.4.2-0.5,0.4-0.8h0a0.3,0.3,0,0,0-.5.1h0.3c-0.1.3-.7,0.7-0.7,0.1a2,2,0,0,1,1-1.4,1.3,1.3,0,0,1,.3-0.8,1.1,1.1,0,0,1,.8-0.4A1.9,1.9,0,0,1,50,5.5l1.4-.6A1.8,1.8,0,0,0,53,3.7a3.7,3.7,0,0,0-.1-0.5,0.9,0.9,0,0,1,1,.4V4.2a0.6,0.6,0,0,1,.6.8c-0.1.5-.8,0.5-0.8,0.1s0.4-.1.4-0.3a0.2,0.2,0,0,0-.3-0.1c-0.5.1-.4,0.9,0.2,0.9s0.5,0.7.7,1a2.8,2.8,0,0,0,1.1,1A1.6,1.6,0,0,0,57.8,7a1.1,1.1,0,0,0,0-.7,0.8,0.8,0,0,1,.7,1.1l-0.3.4a1.1,1.1,0,0,0,.1.4,0.8,0.8,0,0,1-.4.8c-0.3.1-.7,0.1-0.7-0.3s0.1-.5.3-0.4l0.2,0.2c0.3,0,.2-0.6-0.2-0.5l-0.5.3a2,2,0,0,1-1.6,0l-0.8-.5a1.1,1.1,0,0,1-.9.1,0.5,0.5,0,0,1-.2-0.4c1.7,0,.3-2-1.1-2H51.8a1.8,1.8,0,0,0-1.4.9,0.6,0.6,0,0,0,1.1.5c0.2-.1.3-0.5,0.4-0.5s0.4,0.2.5,0.4-0.3.6-.2,0.8a2.2,2.2,0,0,1,.7,1.5c0,1.2-.8,1.5-1.7,2a9.6,9.6,0,0,0-2,1.3c-0.5.5-.9,1.3-0.1,1.7s2.5-.7,3.2-1.4l1.1-1.2A5.6,5.6,0,0,1,57,9.4l0.5,0.2a3.8,3.8,0,0,1,1.3.7,3.4,3.4,0,0,0,1.7,1.1,1,1,0,0,0,1.2-.8V10c0.6,0.2,1,.5.8,1.2l-0.2.4a3.5,3.5,0,0,1,.2.6c0,1.1-1.1,1.2-1.3.6a0.4,0.4,0,0,1,0-.3,0.4,0.4,0,0,1,.3-0.3l0.2,0.2a0.2,0.2,0,0,0,.3-0.2L61.7,12c-0.4-.3-0.5.1-0.8,0.1H60.5a1,1,0,0,0-.7.5c-0.6,1.3.8,2.9,2,3.3l0.6,0.2c1.6,0,1.2-1.1,2.1-1.4s1.1,1.2.3,0.9V15.3a0.3,0.3,0,0,0,0,.5c0.4,0.1.9-.4,1.5,0.1l0.2,0.4a0.9,0.9,0,0,1-.9,1.3h0ZM30.7,13.9v0.7c0,0.5-.2.3-0.4,0.7a0.9,0.9,0,0,0,.8,1.3,1.6,1.6,0,0,0,.7-0.2h0.6c0.8,0,1.7-1.3,1-1.8s-0.4.5-.9,0.4a0.6,0.6,0,0,1-.4-0.6,4.2,4.2,0,0,1,.7-1.2c0.1-.4.4-1.7-0.2-1.7H32.3l-1,.3-0.8.5a0.6,0.6,0,0,1,.2-0.6,2,2,0,0,1,1.7-.8c1.6,0,2.2,1,3.1,2.1s0.6,0.5.8,0.8l-0.9.5v0.2l0.4-.2,0.5-.2a0.6,0.6,0,0,1,.7.1,0.2,0.2,0,0,0,.1-0.2l-1-.8a6.6,6.6,0,0,1-.8-1.1,3.4,3.4,0,0,0-2.4-1.4c-1.1,0-2.2.3-2.5,1.5s-0.2.6,0.1,0.5l0.8-.6,0.6-.2c0.5-.2.9-0.2,0.9,0.4s-0.8,1.6-.9,2.2a0.7,0.7,0,0,0,1,.8c0.2-.1.5-0.6,0.6-0.2a1.2,1.2,0,0,1-1.1,1.3L31.8,16a2.2,2.2,0,0,1-.7.3,0.7,0.7,0,0,1-.6-1.1c0.1-.1.6-0.2,0.6,0.1a2.3,2.3,0,0,0-.2.4c0.3,0,.5,0,0.5-0.4s-0.6-.3-0.5-0.9V13.9a2.6,2.6,0,0,0,.3-0.9H31.1l-0.5.7-0.6.5a10.1,10.1,0,0,1-.8,1.2,3.9,3.9,0,0,1-1.1.8c-2,.9-3.4-0.5-4.3-0.3a0.6,0.6,0,0,0-.4,1l0.3,0.3H23.1a1,1,0,0,1-.7-1.7,1.4,1.4,0,0,1,.9-0.7,1,1,0,0,1,.3-0.8,0.5,0.5,0,0,1,.8.3c0,0.1,0,.5-0.2.5H24a0.2,0.2,0,0,0-.1.3c0.3,0.5.7-.4,0.9-0.4l0.7,0.4,0.6,0.2a2.8,2.8,0,0,0,3.1-2.7c0-.6-0.1-1-0.8-1H27.9c-0.2,0-.4-0.3-0.6-0.1a0.2,0.2,0,0,0,0,.3c0.1,0,.5-0.2.4,0.2H27.6a0.5,0.5,0,0,1-.8,0c-0.6-.6.1-1.1,0.1-1.4V10.5a0.8,0.8,0,0,1,.7-0.8v0.5a1.4,1.4,0,0,0,1.1.8c0.9,0,1-.4,1.7-0.9a4.2,4.2,0,0,1,2.1-.7c3.5-.1,3.4,2.9,6.1,4.1s2.4-.7,1.2-1.6-2.1-.8-2.8-1.7a2.4,2.4,0,0,1-.5-2,1.7,1.7,0,0,1,.2-0.6A0.5,0.5,0,0,1,37,7.3c0.1-.3-0.5-0.6-0.2-1h0.2l0.2,0.3a0.8,0.8,0,0,0,1.1.1,0.5,0.5,0,0,0,.1-0.5c-0.2-1.1-2.3-1-3-.4s-0.6,1.3.2,1.3a0.3,0.3,0,0,1-.2.3c-0.6.3-.9-0.3-1.1-0.3l-0.8.7-0.6.3c-1.1.3-.7-0.5-1.3-0.4s-0.5.2-.3,0.5l0.3-.3c0.9,0.8-.9,1.3-1,0.2s0.1-.5.1-0.7S30.4,7,30.5,6.6a0.4,0.4,0,0,1,.3-0.2,2,2,0,0,0,1.6,1.1c1.5-.1,1.3-1.3,2.1-2s0.8-.1,1-0.5-0.1-.5-0.3-0.3a2.4,2.4,0,0,1,0,.4,0.5,0.5,0,0,1-.8-0.4c0-.5.4-0.4,0.7-0.6V3.7a0.8,0.8,0,0,1,.8-0.4,1.3,1.3,0,0,0,.1.8c0.4,0.5,1.3.5,1.9,0.8a4.5,4.5,0,0,1,1.3.9l0.4,0.5a1.6,1.6,0,0,1,.8.3,1.3,1.3,0,0,1,.3.8l0.4,0.3a2.3,2.3,0,0,1,.5,1.3c-0.1.6-.5,0-0.6-0.3h0.4c0-.2-0.3-0.4-0.5-0.2s0.2,0.5.2,0.7,0,0.3-.1.2a1.4,1.4,0,0,0-1.3-.9c-1.1,0-.4.7-0.7,0.9a0.8,0.8,0,0,1-.7-0.5,0.4,0.4,0,0,0,.4-0.4c0-.3-0.6-0.3-0.7-0.6s0.4-.9.6-0.5V7.7a2.6,2.6,0,0,1-.3.1c-0.1.2,0.3,0.3,0.5,0.1S38.7,7,38.2,7.2a1.2,1.2,0,0,0-.5.7,1.2,1.2,0,0,0-.6.9c0.1,1.2,1.9,1.6,2.7,2.1a3.8,3.8,0,0,1,1.3,1.4,2.8,2.8,0,0,1,.3,1c0,0.7-.6,1.2.2,1.8a0.9,0.9,0,0,0,1.4-.3,1.9,1.9,0,0,0,.1-0.6c1,0,1.1,1.7.2,1.8H42.8l-0.4.4a0.9,0.9,0,0,1-1.3-.1c-0.2-.5.2-0.8,0.6-0.3s-0.3.3-.1,0.3,0.3-.4.2-0.6a2.2,2.2,0,0,0-.7-0.2,6,6,0,0,0-.5-0.5H38.8l-1.1-.2L37,14.7a1.2,1.2,0,0,0-1.2.9,0.7,0.7,0,0,0,.8.7l0.4-.2a0.2,0.2,0,0,1,.1.2,1,1,0,0,1-1.6.7,1.8,1.8,0,0,1-.5-0.6l-0.5-.2a0.9,0.9,0,0,1-.3-1.1,0.4,0.4,0,0,1,.8,0c0.2,0.3-.3.3-0.4,0.4s0.1,0.2.2,0.2,0.2-.7.2-0.9a0.7,0.7,0,0,0,.1-0.5,4.1,4.1,0,0,0-.3.4l-0.6.2a1.1,1.1,0,0,0,0,1.5l0.5,0.3a1.5,1.5,0,0,0,1.1.7h0.6c0.4-.2,1-1,0.5-1.4s-0.8.6-1.1-.2a0.7,0.7,0,0,1,.1-0.4c0.5-.7,1.2-0.3,1.9-0.1h2.1a0.7,0.7,0,0,1,.7.5,1.4,1.4,0,0,1-.1.4,1,1,0,0,0,.9.8,2.3,2.3,0,0,0,1.3-.6h0.3a1,1,0,0,0,.9-1.5c-0.1-.4-1.2-1.1-1.2-0.5v0.3c0,0.7-.9.8-1.3,0.3s0.1-1.1.1-1.6a4.5,4.5,0,0,0-.5-1.5,4.3,4.3,0,0,0-1-.9c-0.8-.5-2.3-0.9-2.8-1.8a0.7,0.7,0,0,1,0-.5c0.3-.7,1.2,0,1.1.1a1.4,1.4,0,0,1-.4.2,0.4,0.4,0,0,0,.1.3,1.5,1.5,0,0,0,1.4.6c-0.1-.2-0.5-0.5-0.2-0.8a0.4,0.4,0,0,1,.5-0.1A2.1,2.1,0,0,1,41.1,10c0.2,0.1.3-.3,0.4-0.4a0.5,0.5,0,0,0,.3-0.2,1.4,1.4,0,0,0,.1-0.5,3.4,3.4,0,0,0-.9-1.6,2.9,2.9,0,0,0-.4-0.7l-0.4-.3H39.8l-0.4-.5-0.6-.5-1.5-.7H36.8c-0.5-.2-0.9-0.5-0.5-1a0.9,0.9,0,0,0-1.2.1l-0.3.4a1.6,1.6,0,0,0-.5.4,1.2,1.2,0,0,0,.1,1L34,5.8c-0.4.7-.8,1.6-1.8,1.5a1.7,1.7,0,0,1-1.2-.7V6.2a0.2,0.2,0,0,0-.3-0.1c-0.9.5-.2,1.1-0.2,1.4V7.9a0.9,0.9,0,0,0,.4.9A0.9,0.9,0,0,0,32,8.7l0.2-.3h0.2a2.9,2.9,0,0,0,1.3-.4l0.6-.4a5.1,5.1,0,0,0,.9.2c0.2,0,1-.5.7-0.8H35.3V6.5l0.2-.4a1.5,1.5,0,0,1,.7-0.6c0.6-.2,1.8-0.1,2.1.6a1.5,1.5,0,0,1,0,.4,0.7,0.7,0,0,1-.7-0.1l-0.2-.2V5.9c-1.1.2-.6,1-0.7,1.2a2.3,2.3,0,0,0-.3.5,2.7,2.7,0,0,0,1.5,3.5,10.9,10.9,0,0,1,1.7.8c0.4,0.3.7,1,.2,1.3a1.4,1.4,0,0,1-1.4-.1c-1.3-.7-1.9-1.9-2.9-2.9a3.2,3.2,0,0,0-1.2-.8,4.5,4.5,0,0,0-4,.5,4.2,4.2,0,0,1-1.3.8,1.1,1.1,0,0,1-1.2-1.2c-0.5-.4-1.1.3-1.1,0.8s0.1,0.4.1,0.6a1.5,1.5,0,0,0-.3.6v0.3a0.8,0.8,0,0,0,1.2.8,0.9,0.9,0,0,0,.3-0.5,0.7,0.7,0,0,1,.9.1,0.7,0.7,0,0,1,.1.6,2.7,2.7,0,0,1-2.2,2.6,2,2,0,0,1-1.6-.5l-0.5-.3a0.8,0.8,0,0,0-.7-0.5c-0.7-.1-0.6.5-1,0.8l-0.3.2-0.3.4c-0.6.9-.3,2.1,0.9,2.1s0.8-.2.6-0.5a1.1,1.1,0,0,1-.4-0.5c-0.1-.5.6-0.5,1-0.4a5.8,5.8,0,0,0,1.8.5h0.4a3.7,3.7,0,0,0,2.9-1.3c0.6-.7.4-1,1.3-1.5h0Zm23.4,1.2a2.8,2.8,0,0,0-1-1.1l-0.4-.3a0.4,0.4,0,0,1,.2-0.4l0.9-1a4.7,4.7,0,0,1,1.5-1.3c1.3-.6,3.1-0.2,3.1,1.5a3.1,3.1,0,0,0-2-.8c-0.3,0-.9.2-0.8,0.6s1.3,1.2,1.3,2.1V15a0.5,0.5,0,0,1-.8.1c-0.2-.2,0-0.5-0.2-0.7s-0.9.5-.9,0.9a1.9,1.9,0,0,0-.9-0.3h0Zm2.7-6.5V9.2L56,9.3l-1.4.7-1.3,1c-1.2,1.2-2.1,2.6-3.9,2.6s-0.6-.9-0.2-1.3l0.9-.7a8.6,8.6,0,0,0,2.6-1.7A1.7,1.7,0,0,0,53,8.8a1.6,1.6,0,0,0-.3-0.9l-0.3-.4a4.6,4.6,0,0,1,.2-0.8c-0.1-.6-1.1-1-1.1-0.3a0.3,0.3,0,0,1-.4.4c-1.1.1-.3-1.2,0.7-1.2a1.8,1.8,0,0,1,1.9.8,0.7,0.7,0,0,1,.2.5c-0.2.7-.9-0.3-0.8,0.4s1.3,0.6,1.4.6l0.7,0.4,1.1,0.3h0.7ZM44.4,13.2c-0.7-.2-0.3-0.8-0.3-1s-0.2-.3-0.3-0.5V11.4l-0.2-.2a0.7,0.7,0,0,1,0-.6c0.1-.4-0.5-0.3-0.8-0.5a1.2,1.2,0,0,1-.2-0.9l-0.2-.4a0.7,0.7,0,1,1,1.3.1V9.2h0.2c0.6-.2-0.1-0.9,0-1.2a0.9,0.9,0,0,1,.5-0.5,2.3,2.3,0,0,0,.4.5V8.4a0.6,0.6,0,0,0,.2.6c0-1.4,1.3-.9,1.3-0.3V9.5c-0.3.8-1.1,0.2-1.3,0.6s0.3,0.5.3,0.7a1.6,1.6,0,0,1-.5.7c0,0.1.1,0.5,0.1,0.7a1.6,1.6,0,0,1-.3.5v0.5h0Zm3.7-5V8c0.1-.2,1.3-0.5.8,0H48.7l-0.2.2H48Zm-7.2,0c-0.1.1-.3,0.3-0.5,0.1V8.1l-0.2-.2c0-.1-0.1-0.3,0-0.3a1.3,1.3,0,0,1,.5.4l0.3,0.3h0Zm6.7-2.8c-0.4-.7-1.2.1-1.2,0.7s0.2,0.6.2,0.9-0.1.4-.5,0.6a0.8,0.8,0,0,1-.5.4A0.7,0.7,0,0,1,44.6,7a0.4,0.4,0,0,1,.9.1c0.3-.2-0.1-0.5-0.3-0.6a0.9,0.9,0,0,0-.7.2H44a0.5,0.5,0,0,0-.6.2c1,0,1.1.9,0.3,1H42.9c-0.9-.5,0-0.9,0-1.3a0.9,0.9,0,0,0-.3-0.5V5.6a0.7,0.7,0,0,0-.9-0.4V5.3c0.9-.4,1,1.1,0,1.1H41.3c-0.6,0-.8-0.9-0.5-1.3l0.4-.4a0.8,0.8,0,0,1,.5-0.4,0.6,0.6,0,0,1,.5.2,4.5,4.5,0,0,1,.2.6,2.7,2.7,0,0,0,1.7,1.1,2.5,2.5,0,0,0,2.2-1l0.3-.5,0.5-.2a1.1,1.1,0,0,1,.7.2c0.4,0.2.9,0.1,0.9,0.8a0.5,0.5,0,0,1-.1.4,2.1,2.1,0,0,1-.6.3,0.9,0.9,0,0,1-.7.3c-0.6-.1-0.8-1.1-0.1-1.1h0.3ZM46.7,4.3H46.5l-0.2-.5a4.6,4.6,0,0,0-.7-1,2.1,2.1,0,0,0-3.3.8,1.3,1.3,0,0,0-.1.8H42.1V3.9a2.3,2.3,0,0,1,3-1.8,2.2,2.2,0,0,1,1.1.9,2.2,2.2,0,0,1,.5,1.3h0Z" style="fill:#6d6e70;fill-rule:evenodd"/><path d="M23.5,44.1a0.8,0.8,0,0,0,.4.8c1.1,0.6,1.3-.8,2-1.2h0.7a3,3,0,0,1,2.5,2.7c0,0.3-.5,1-0.8.7a1.8,1.8,0,0,0-.4-0.8,1,1,0,0,0-1.5,1,2.8,2.8,0,0,0,.2.6,4,4,0,0,1-.2.6,1.2,1.2,0,0,0,1.1,1.1c0.1,0,.6,0,0.5-0.2a0.9,0.9,0,0,1-.4-0.3c-0.3-.7.8-0.9,1.3-0.7a5.6,5.6,0,0,1,1.2.9l0.7,0.4,0.6,0.3c-0.2.3-.8,0.2-0.8,1v0.5l-0.2.3a1.2,1.2,0,0,0,.3,1.3,1,1,0,0,0,.8.1c0.6-.1-0.5-0.5.1-1a1.1,1.1,0,0,1,.9-0.2c1.3,0.1,1.6.9,2,2a0.9,0.9,0,0,0-.1,1.2l0.4,0.3L34.9,56a0.9,0.9,0,0,0,.8.4c1.6,0,0-.4.9-1.2a4,4,0,0,1,1.3-.5,5.4,5.4,0,0,0,1.5-.7,5.3,5.3,0,0,0,.6-0.7,3.7,3.7,0,0,0,.8-0.5,4,4,0,0,1,.6-1,2.2,2.2,0,0,0,.7-1.5,1.5,1.5,0,0,0-.4-0.4,0.9,0.9,0,0,0-.4-0.6c-0.4-.2-0.4,1.2-1.3,1.2s-0.5-.1-0.4-0.3,0.9-.4.3-0.6H39.6c-0.3,0-1.3.1-1.3,0.5s0.5,0.3.3,0.5a1.1,1.1,0,0,1-.5.3l-0.3.2c-0.3.1-.3-0.4-0.3-0.6s4.2-1.9,4.4-4.7c0.1-.7-1-1.1-0.1-1.6a0.8,0.8,0,0,1,1.1.6,2.8,2.8,0,0,0-.4.6,0.7,0.7,0,0,0,.6.3,1,1,0,0,0,.7-1.8,4.4,4.4,0,0,0-.8-0.6L42.9,43a1.4,1.4,0,0,0-1.2-.5c-0.6,0-1.1.5-.8,1.1a7.2,7.2,0,0,0-.7.7H38.9l-1.7.5c-0.4,0-1.2-.4-1-0.8s0.6,0,.8.1,0.7-.3.7-0.7a0.9,0.9,0,0,0-.4-0.6c-1-.8-1.4.1-2.2,0.1H34.4a4.3,4.3,0,0,0-.6.6,2.8,2.8,0,0,0-1.1-.5H31.9a1.3,1.3,0,0,0-1.3.1,0.7,0.7,0,0,0-.3.5,1,1,0,0,0,.4.8V45c-0.8-.2-0.8-0.5-1.2-1.1a4.2,4.2,0,0,0-3.1-1.3l-1.3.2-0.7.2H24.1c-0.4,0-.8-0.3-0.5-0.6L24,42c0-.2-0.1-0.2-0.2-0.2a1.2,1.2,0,1,0-.3,2.3h0Zm0-2.1-0.2.5c-0.1.4,0.4,0.6,0.8,0.6a5.6,5.6,0,0,0,1.3-.3,4.8,4.8,0,0,1,2.5.2,3.7,3.7,0,0,1,1.6,1.3l0.3,0.5a3.2,3.2,0,0,1,.9.5c0.4,0.4.4,1,1,1.3l-0.3-.4a2.4,2.4,0,0,1-.5-1.9,6.7,6.7,0,0,0,.6-0.6c0-.1-0.1-0.4-0.2-0.3s0.1,0.4-.3.4a0.4,0.4,0,0,1-.5-0.5c0-.5.9-0.6,1.3-0.4l0.4,0.2h0.4a1,1,0,0,1,1.2,1.3l-0.3.4c-0.2.1-.3-0.5-0.5-0.6a0.7,0.7,0,0,0-1.1.3v0.5c0,1.1,1.2,1.3,1.2,2.1s-1.2.4-1.6,0.3L30.8,47l-0.5-.6c-0.2,0-.2.2-0.1,0.3A2.1,2.1,0,0,0,32.3,49c1.7,0,2.5-1.3,3.6-2.4l0.6-.6,0.5-.2c0.2-.1.3-0.3,0-0.4s0,0.2-.2.2a1.8,1.8,0,0,1-1.5-.9c-0.3-.5.2-0.5,0.1-0.9s-0.3-.4-0.3-0.2a0.8,0.8,0,0,1,.1.4c-0.1.5-.7,0.2-0.9-0.1a0.7,0.7,0,0,1-.1-0.5c0.1-.7,1-0.3,1.3-0.5a3,3,0,0,1,1-.4h0.5c0.3,0.1.8,0.8,0.5,1.1s-0.8-.8-1.3,0a0.8,0.8,0,0,0,.6,1.1c0.8,0.3,2.2-.4,3.1-0.5h0.9c0.1,0,.1-0.4.4-0.6s1.1-.2,1.1-0.6a0.1,0.1,0,0,0-.2-0.1c-0.1.1-.1,0.5-0.5,0.2l-0.2-.2c-0.1-.4.4-0.6,0.7-0.6a1,1,0,0,1,1,.5,1.6,1.6,0,0,0,.1.3c0.2,0.2.5,0.1,0.7,0.3s0.6,1.7-.5,1.8,0.2-.4.2-0.7a1,1,0,0,0-1.3-.8,1,1,0,0,0-.6.8,2,2,0,0,1,.4.8v0.4a1.3,1.3,0,0,1-.3.9c-0.9,1.7-3.3,2.1-4,3.3s0.1,0.9.4,1.3,0.4,0.7.8,0.5,0.7-.7,0-0.7v0.3c-0.1.3-.6,0.3-0.6,0s0.3-.5.6-0.7,0.2-.6-0.1-0.8a0.8,0.8,0,0,1,.9-0.3l-0.2.5c-0.1.4,0.5,0.6,0.8,0.5a1.8,1.8,0,0,0,1.1-1.2,0.2,0.2,0,0,1,.2.2c0.1,0.4-.2.5-0.4,0.8h0a0.3,0.3,0,0,0,.5-0.1H41.2c0.1-.3.7-0.7,0.7-0.1a2,2,0,0,1-1,1.4,1.3,1.3,0,0,1-.3.8,1.1,1.1,0,0,1-.8.4,1.9,1.9,0,0,1-.7.9l-1.4.6A1.8,1.8,0,0,0,36,55.8a3.8,3.8,0,0,0,.1.5,0.9,0.9,0,0,1-1-.4V55.4a0.6,0.6,0,0,1-.6-0.8c0.1-.5.8-0.5,0.9-0.1s-0.4.1-.4,0.3a0.2,0.2,0,0,0,.3.1c0.5-.1.4-0.9-0.2-0.9s-0.5-.7-0.7-1a2.8,2.8,0,0,0-1.1-1,1.6,1.6,0,0,0-1.9.5,1.1,1.1,0,0,0,0,.7,0.8,0.8,0,0,1-.7-1.1l0.3-.4a1.1,1.1,0,0,0-.1-0.4,0.8,0.8,0,0,1,.4-0.8c0.3-.1.7-0.1,0.7,0.3s-0.1.5-.3,0.4l-0.2-.2c-0.3,0-.2.6,0.2,0.5l0.5-.3a2,2,0,0,1,1.6,0l0.8,0.5a1.1,1.1,0,0,1,.9-0.1,0.5,0.5,0,0,1,.2.4c-1.7,0-.3,2,1,2h0.4a1.8,1.8,0,0,0,1.4-.9,0.6,0.6,0,0,0-1.1-.5c-0.2.1-.3,0.5-0.4,0.5s-0.4-.2-0.5-0.4,0.3-.6.2-0.8a2.2,2.2,0,0,1-.7-1.5c0-1.2.8-1.5,1.7-2a9.7,9.7,0,0,0,2-1.3c0.5-.5.9-1.3,0.1-1.7s-2.5.7-3.2,1.4l-1.1,1.1A5.5,5.5,0,0,1,32,50.1L31.5,50a3.8,3.8,0,0,1-1.3-.7,3.4,3.4,0,0,0-1.7-1.1,1,1,0,0,0-1.2.8v0.6c-0.6-.2-1-0.5-0.8-1.2l0.2-.4a3.5,3.5,0,0,1-.2-0.6c0-1.1,1.1-1.2,1.3-.6a0.5,0.5,0,0,1-.3.6l-0.2-.2a0.2,0.2,0,0,0-.3.2l0.2,0.2c0.4,0.3.5-.1,0.8-0.1h0.3a1,1,0,0,0,.7-0.5c0.6-1.3-.8-2.9-2-3.3l-0.6-.2c-1.6,0-1.2,1.1-2.1,1.4s-1.1-1.2-.3-0.9v0.3a0.3,0.3,0,0,0,0-.5c-0.4-.1-0.9.4-1.5-0.1l-0.2-.4a0.9,0.9,0,0,1,.9-1.3h0Zm34.8,3.7V45c0-.5.2-0.3,0.4-0.7a0.9,0.9,0,0,0-.8-1.3,1.6,1.6,0,0,0-.7.2H56.6c-0.8,0-1.7,1.3-1,1.8s0.4-.5.9-0.4a0.6,0.6,0,0,1,.4.6,4.2,4.2,0,0,1-.7,1.2c-0.1.4-.4,1.7,0.2,1.7h0.2l1-.3,0.8-.5a0.6,0.6,0,0,1-.2.6,2,2,0,0,1-1.7.8c-1.6,0-2.2-1-3.1-2.1s-0.6-.5-0.8-0.8l0.9-.5V45.2l-0.4.2-0.5.2a0.6,0.6,0,0,1-.7-0.1,0.2,0.2,0,0,0-.1.2l1,0.8a6.7,6.7,0,0,1,.8,1.1A3.4,3.4,0,0,0,56.3,49c1.1,0,2.2-.3,2.5-1.5s0.2-.6-0.1-0.5l-0.8.6-0.6.2c-0.5.2-.9,0.2-0.9-0.4s0.8-1.6.9-2.2a0.7,0.7,0,0,0-.9-0.8c-0.2.1-.5,0.6-0.6,0.2a1.2,1.2,0,0,1,1.1-1.3l0.4,0.2a2.2,2.2,0,0,1,.7-0.3,0.7,0.7,0,0,1,.6,1.1c-0.1.1-.6,0.2-0.6-0.1a2.3,2.3,0,0,0,.2-0.4c-0.3,0-.5,0-0.5.4s0.6,0.3.5,0.9v0.5a2.6,2.6,0,0,0-.3.9H58l0.5-.7,0.6-.5a10,10,0,0,1,.8-1.2,3.9,3.9,0,0,1,1.1-.8c2-.9,3.4.5,4.3,0.3a0.6,0.6,0,0,0,.4-1l-0.3-.3h0.5a1,1,0,0,1,.7,1.7,1.4,1.4,0,0,1-.9.7,1,1,0,0,1-.3.8,0.5,0.5,0,0,1-.8-0.3c0-.1,0-0.5.2-0.5H65a0.2,0.2,0,0,0,.1-0.3c-0.3-.5-0.7.4-0.9,0.4l-0.7-.4L63,44.1a2.8,2.8,0,0,0-3.1,2.7c0,0.6.1,1,.8,1h0.5c0.2,0,.4.3,0.6,0.1a0.2,0.2,0,0,0,0-.3c-0.1,0-.5.2-0.4-0.2h0.1a0.5,0.5,0,0,1,.8,0c0.6,0.6-.1,1.1-0.1,1.4v0.5a0.8,0.8,0,0,1-.7.8V49.4a1.4,1.4,0,0,0-1.1-.8c-0.9,0-1,.4-1.7.8a4.2,4.2,0,0,1-2.1.7c-3.5.1-3.4-2.9-6.1-4.1s-2.4.7-1.3,1.6,2.1,0.8,2.8,1.7a2.4,2.4,0,0,1,.5,2,1.7,1.7,0,0,1-.2.6,0.5,0.5,0,0,1-.5.2c-0.1.3,0.5,0.6,0.2,1H52L51.7,53a0.8,0.8,0,0,0-1.1-.1,0.5,0.5,0,0,0-.1.5c0.2,1.1,2.3,1,3,.4s0.6-1.3-.2-1.3a0.3,0.3,0,0,1,.2-0.3c0.6-.3.9,0.3,1.1,0.3l0.8-.7,0.6-.3c1.1-.3.7,0.5,1.3,0.4s0.5-.2.3-0.5l-0.3.3c-0.9-.8.9-1.3,1-0.2s-0.1.5-.1,0.7,0.4,0.4.2,0.8a0.4,0.4,0,0,1-.3.2,2,2,0,0,0-1.6-1.1c-1.5.1-1.3,1.3-2.1,2s-0.8.1-1,.5,0.1,0.5.3,0.3a2.4,2.4,0,0,1,0-.4,0.5,0.5,0,0,1,.8.4c0,0.5-.4.4-0.7,0.6v0.2a0.8,0.8,0,0,1-.8.4,1.3,1.3,0,0,0-.1-0.8c-0.4-.5-1.3-0.5-1.9-0.8a4.4,4.4,0,0,1-1.3-.9l-0.4-.5a1.6,1.6,0,0,1-.8-0.3,1.3,1.3,0,0,1-.3-0.8l-0.4-.3a2.3,2.3,0,0,1-.5-1.3c0.1-.6.5,0,0.6,0.3H47.6c0,0.2.3,0.4,0.5,0.2s-0.2-.5-0.2-0.7,0-.3.1-0.2a1.4,1.4,0,0,0,1.3.9c1.1,0,.4-0.7.7-0.9a0.8,0.8,0,0,1,.7.5,0.4,0.4,0,0,0-.4.4c0,0.4.6,0.3,0.7,0.6s-0.4.9-.7,0.5V51.9a2.9,2.9,0,0,1,.3-0.1c0.1-.2-0.3-0.3-0.5-0.1s0.2,0.8.7,0.6a1.2,1.2,0,0,0,.5-0.7,1.2,1.2,0,0,0,.6-0.9c-0.1-1.2-1.9-1.6-2.7-2.1a3.8,3.8,0,0,1-1.3-1.4,2.8,2.8,0,0,1-.3-1c0-.7.6-1.2-0.2-1.8a0.9,0.9,0,0,0-1.4.3,1.9,1.9,0,0,0-.1.6c-1,0-1.1-1.7-.2-1.8h0.5l0.4-.4a0.9,0.9,0,0,1,1.3.1c0.2,0.5-.2.8-0.6,0.3s0.3-.3.1-0.3-0.3.4-.2,0.6a2.2,2.2,0,0,0,.7.2,6,6,0,0,0,.5.5h1.8l1.1,0.2L52,44.9a1.2,1.2,0,0,0,1.2-.9,0.7,0.7,0,0,0-.8-0.7l-0.4.2a0.2,0.2,0,0,1-.1-0.2,1,1,0,0,1,1.6-.7,1.8,1.8,0,0,1,.5.6l0.5,0.2a0.9,0.9,0,0,1,.3,1.1,0.4,0.4,0,0,1-.8,0c-0.2-.3.3-0.3,0.4-0.4s-0.1-.2-0.2-0.2-0.2.7-.2,0.9a0.7,0.7,0,0,0-.1.5,4.5,4.5,0,0,0,.3-0.4l0.6-.2a1.1,1.1,0,0,0,0-1.5l-0.5-.3a1.5,1.5,0,0,0-1.1-.7H52.5c-0.4.2-1,1-.5,1.4s0.8-.6,1.1.2a0.7,0.7,0,0,1-.1.4c-0.5.7-1.2,0.3-1.9,0.1H48.9a0.7,0.7,0,0,1-.7-0.5,1.3,1.3,0,0,1,.1-0.4,1,1,0,0,0-.9-0.8,2.3,2.3,0,0,0-1.3.6H45.7a1,1,0,0,0-.9,1.5C45,45.2,46,46,46,45.3V45c0-.7.9-0.8,1.3-0.3s-0.1,1.1-.1,1.6a4.5,4.5,0,0,0,.5,1.5,4.3,4.3,0,0,0,1,.9c0.8,0.5,2.3.9,2.8,1.8a0.7,0.7,0,0,1,0,.5c-0.3.7-1.2,0-1.1-.1a1.3,1.3,0,0,1,.4-0.2,0.4,0.4,0,0,0-.1-0.3,1.5,1.5,0,0,0-1.4-.6c0.1,0.2.5,0.5,0.2,0.8a0.4,0.4,0,0,1-.5.1A2.1,2.1,0,0,1,48,49.6c-0.2-.1-0.3.3-0.4,0.4a0.5,0.5,0,0,0-.3.2,1.4,1.4,0,0,0-.1.5,3.4,3.4,0,0,0,.9,1.6,2.9,2.9,0,0,0,.4.7l0.4,0.3h0.3l0.4,0.5,0.6,0.5,1.4,0.7h0.6c0.5,0.2.9,0.5,0.5,1a0.9,0.9,0,0,0,1.2-.1l0.3-.4a1.6,1.6,0,0,0,.5-0.4,1.2,1.2,0,0,0-.1-1l0.3-.5c0.4-.7.8-1.6,1.8-1.5a1.7,1.7,0,0,1,1.2.8v0.3a0.2,0.2,0,0,0,.3.1c0.9-.5.2-1.1,0.2-1.4V51.7a0.9,0.9,0,0,0-.4-0.9,0.9,0.9,0,0,0-1.1.1l-0.2.3H56.5a2.9,2.9,0,0,0-1.3.4l-0.6.4a5.3,5.3,0,0,0-.9-0.2c-0.2,0-1,.5-0.7.8h0.6v0.3l-0.2.4a1.5,1.5,0,0,1-.7.6c-0.6.2-1.8,0.1-2.1-.6a1.5,1.5,0,0,1,0-.4,0.7,0.7,0,0,1,.7.1l0.2,0.2v0.3c1.1-.2.6-1,0.7-1.2a2.4,2.4,0,0,0,.3-0.5,2.7,2.7,0,0,0-1.5-3.5,11.2,11.2,0,0,1-1.7-.8c-0.4-.3-0.7-1-0.2-1.3a1.4,1.4,0,0,1,1.4.1c1.3,0.7,1.9,1.9,2.9,2.9a3.2,3.2,0,0,0,1.2.8,4.5,4.5,0,0,0,4-.5,4.2,4.2,0,0,1,1.3-.8A1.1,1.1,0,0,1,61.3,50c0.5,0.4,1.1-.3,1.1-0.8s-0.1-.4-0.1-0.6a1.5,1.5,0,0,0,.3-0.6V47.7a0.8,0.8,0,0,0-1.2-.8,0.9,0.9,0,0,0-.3.5,0.7,0.7,0,0,1-.9-0.1,0.7,0.7,0,0,1-.1-0.6,2.7,2.7,0,0,1,2.2-2.6,2,2,0,0,1,1.6.5L64.4,45a0.8,0.8,0,0,0,.7.5c0.7,0.1.6-.5,1-0.8l0.3-.2,0.3-.4c0.6-.9.3-2.1-0.9-2.1s-0.8.2-.6,0.5a1.1,1.1,0,0,1,.4.5c0.1,0.5-.6.5-1,0.4a5.8,5.8,0,0,0-1.8-.5H62.5a3.7,3.7,0,0,0-2.9,1.3c-0.6.7-.4,1-1.3,1.5h0ZM34.9,44.5a2.8,2.8,0,0,0,1,1.1l0.4,0.3a0.4,0.4,0,0,1-.2.3l-0.9,1a4.6,4.6,0,0,1-1.5,1.3c-1.3.6-3.1,0.2-3.1-1.5a3.1,3.1,0,0,0,2,.8c0.3,0,.9-0.2.8-0.6S32,46,31.9,45.1V44.5a0.5,0.5,0,0,1,.8-0.1c0.2,0.2,0,.5.2,0.7s0.9-.5.9-0.9a1.9,1.9,0,0,0,.9.3h0ZM32.2,51V50.4l0.9-.2,1.4-.7,1.3-1c1.2-1.1,2.1-2.6,3.9-2.6s0.6,0.9.2,1.3l-0.9.7a8.6,8.6,0,0,0-2.6,1.7,1.7,1.7,0,0,0-.2,1.2,1.6,1.6,0,0,0,.3.9l0.3,0.4a4.6,4.6,0,0,1-.2.8c0.1,0.6,1.1,1,1.1.3a0.3,0.3,0,0,1,.4-0.4c1.1-.1.3,1.2-0.7,1.2a1.8,1.8,0,0,1-1.9-.8,0.7,0.7,0,0,1-.2-0.5c0.2-.7.9,0.3,0.8-0.4s-1.3-.6-1.4-0.6l-0.7-.4-1.1-.3H32.2Zm12.4-4.6c0.7,0.2.3,0.8,0.3,1s0.2,0.3.3,0.5v0.4l0.2,0.2a0.7,0.7,0,0,1,0,.6c-0.1.4,0.5,0.3,0.8,0.5a1.2,1.2,0,0,1,.2.9l0.2,0.4a0.7,0.7,0,1,1-1.3-.1V50.4H45.1c-0.6.2,0.1,0.9,0,1.2a0.9,0.9,0,0,1-.5.5,2.3,2.3,0,0,0-.4-0.5V51.2a0.6,0.6,0,0,0-.2-0.6c0,1.4-1.3.9-1.3,0.3V50.1c0.3-.8,1.1-0.2,1.3-0.6s-0.3-.5-0.3-0.7a1.6,1.6,0,0,1,.5-0.7c0-.1-0.1-0.5-0.1-0.7a1.6,1.6,0,0,1,.3-0.5V46.4h0Zm-3.7,5v0.2c-0.1.2-1.3,0.5-.8,0h0.2l0.2-.2H41Zm7.2,0c0.1-.1.3-0.3,0.5-0.1v0.2L49,51.7c0,0.1.1,0.3,0,.3a1.3,1.3,0,0,1-.5-0.4l-0.3-.3h0Zm-6.7,2.8c0.4,0.7,1.2-.1,1.2-0.7s-0.2-.6-0.2-0.9,0.1-.4.5-0.6a0.8,0.8,0,0,1,.5-0.4,0.7,0.7,0,0,1,.8.9,0.4,0.4,0,0,1-.9-0.1c-0.3.2,0,.5,0.3,0.6a0.9,0.9,0,0,0,.7-0.2H45a0.5,0.5,0,0,0,.6-0.2c-1,0-1.1-.9-0.3-1h0.9c0.9,0.5,0,.9,0,1.3a0.9,0.9,0,0,0,.3.5V54a0.7,0.7,0,0,0,.9.4V54.2c-0.9.4-1-1.1,0-1.1h0.3c0.6,0,.8.9,0.5,1.3l-0.4.4a0.9,0.9,0,0,1-.5.4,0.6,0.6,0,0,1-.5-0.2,4.6,4.6,0,0,1-.2-0.6,2.7,2.7,0,0,0-1.7-1.1,2.5,2.5,0,0,0-2.2,1l-0.3.5-0.5.2a1.1,1.1,0,0,1-.7-0.2c-0.4-.2-0.9-0.1-0.9-0.8a0.4,0.4,0,0,1,.1-0.4,2,2,0,0,1,.6-0.3,0.9,0.9,0,0,1,.7-0.3c0.6,0.1.8,1.1,0.1,1.1H41.5Zm0.8,1.1h0.2l0.2,0.5a4.6,4.6,0,0,0,.7,1,2.1,2.1,0,0,0,3.3-.8,1.3,1.3,0,0,0,.1-0.8h0.2v0.4a2.3,2.3,0,0,1-3,1.8,2.2,2.2,0,0,1-1.1-.9,2.3,2.3,0,0,1-.5-1.3h0Z" style="fill:#6d6e70;fill-rule:evenodd"/><path d="M27.9,36.4a1,1,0,0,0-1,1v1.2h0.7v0.2H26.9V41H26.7V38.8H26.2V38.6h0.4V37.4a1.2,1.2,0,0,1,1.2-1.2v0.2Z" style="fill:#231f20"/><path d="M28.1,37.7a0.2,0.2,0,1,1,.4,0A0.2,0.2,0,1,1,28.1,37.7ZM28.2,41V38.6h0.2V41H28.2Z" style="fill:#231f20"/><path d="M31.2,41V39.3a0.5,0.5,0,0,0-.6-0.5,1,1,0,0,0-1,.9V41H29.3V38.6h0.2v0.6a1.1,1.1,0,0,1,1-.7,0.7,0.7,0,0,1,.8.7V41H31.2Z" style="fill:#231f20"/><path d="M32.2,40.2a1,1,0,0,0,.9.6,1,1,0,0,0,.7-0.3h0.2a1.2,1.2,0,0,1-.9.3,1.3,1.3,0,0,1,0-2.5,1.1,1.1,0,0,1,1.1.9ZM32.1,40l1.8-.7a0.9,0.9,0,0,0-.8-0.5,1,1,0,0,0-1,1V40Z" style="fill:#231f20"/><path d="M37,36.2h0.2v3.1a1.1,1.1,0,0,1,1-.7,1.3,1.3,0,0,1,0,2.5,1.1,1.1,0,0,1-1.1-.7V41H37V36.2Zm2.3,3.6a1,1,0,1,0-2,0A1,1,0,1,0,39.3,39.8Z" style="fill:#231f20"/><path d="M40,39.8a1.3,1.3,0,1,1,1.2,1.3A1.3,1.3,0,0,1,40,39.8Zm2.3,0a1,1,0,1,0-1,1A1,1,0,0,0,42.2,39.8Z" style="fill:#231f20"/><path d="M45,41V39.3a0.5,0.5,0,0,0-.6-0.5,1,1,0,0,0-1,.9V41H43.2V38.6h0.2v0.6a1.1,1.1,0,0,1,1-.7,0.7,0.7,0,0,1,.8.7V41H45Z" style="fill:#231f20"/><path d="M46,40.2a1,1,0,0,0,.9.6,1,1,0,0,0,.7-0.3h0.2a1.2,1.2,0,0,1-.9.3,1.3,1.3,0,0,1,0-2.5,1.1,1.1,0,0,1,1.1.9ZM46,40l1.8-.7a0.9,0.9,0,0,0-.8-0.5,1,1,0,0,0-1,1V40Z" style="fill:#231f20"/><path d="M51.7,38.6a1.2,1.2,0,0,1,.8.3V39a1,1,0,0,0-.7-0.3,1,1,0,0,0,0,2.1,1,1,0,0,0,.7-0.3v0.2a1.2,1.2,0,0,1-.8.3A1.2,1.2,0,0,1,51.7,38.6Z" style="fill:#231f20"/><path d="M55.2,41V39.3a0.5,0.5,0,0,0-.6-0.5,1,1,0,0,0-1,.9V41H53.3V36.2h0.2v3a1.1,1.1,0,0,1,1-.7,0.7,0.7,0,0,1,.8.7V41H55.2Z" style="fill:#231f20"/><path d="M56,37.7a0.2,0.2,0,1,1,.4,0A0.2,0.2,0,1,1,56,37.7ZM56,41V38.6h0.2V41H56Z" style="fill:#231f20"/><path d="M59,41V39.3a0.5,0.5,0,0,0-.6-0.5,1,1,0,0,0-1,.9V41H57.1V38.6h0.2v0.6a1.1,1.1,0,0,1,1-.7,0.7,0.7,0,0,1,.8.7V41H59Z" style="fill:#231f20"/><path d="M62,41V40.3a1.1,1.1,0,0,1-1.1.7,1.3,1.3,0,0,1,0-2.5,1.1,1.1,0,0,1,1,.7V38.6h0.2V41H62Zm0-1.2a1,1,0,1,0-2,0A1,1,0,1,0,62,39.8Z" style="fill:#231f20"/><path d="M59.5,33.6L59,32.8l-0.4-.6-0.2-.5-1.3-5.5-0.9-3.9A4,4,0,0,0,55,20.4a3.3,3.3,0,0,0-2.2-.7,3.1,3.1,0,0,0-2.1.9,2.5,2.5,0,0,0-.9,1.8l0.8-.5,0.9-.2h0.4l-1,4.5-1.2,5.4-0.3,1-0.4.7a4.9,4.9,0,0,1-1,1.2h3.7L51,33.6l-0.4-.4a3.1,3.1,0,0,1-.2-1.7,17.9,17.9,0,0,1,.3-2.5V26.5h4.1a38.4,38.4,0,0,1,1.1,5.4,3.3,3.3,0,0,1-.2,1.3,2.8,2.8,0,0,1-.8,1.1h4.8Zm-8.2-8,0.8-4.2H53l0.8,0.2a1.7,1.7,0,0,1,.5.7,6.7,6.7,0,0,1,.4,1.2l0.2,0.9,0.2,0.9v0.4H51.3Z" style="fill:#404041"/><path d="M68.8,33.4a2,2,0,0,1-.2-0.9V24.1l-2.6,1,0.6,0.5a1.8,1.8,0,0,1,.4.8v6.2a7.5,7.5,0,0,1-2.2.7,2.4,2.4,0,0,1-1.5-.4,2,2,0,0,1-.7-1.7l1-7.1a7.4,7.4,0,0,1-2.9,1h0.3a1.7,1.7,0,0,1,.5,1.2L60.9,32a5.4,5.4,0,0,0,.1,1,2.1,2.1,0,0,0,.3.8,2,2,0,0,0,1.7.8A15.9,15.9,0,0,0,67,33.2v1.1h2.5L69,33.8Z" style="fill:#404041"/><path d="M76.7,24.8a1.5,1.5,0,0,0-.9-0.3,4.2,4.2,0,0,0-2.1,1.2,2.2,2.2,0,0,1-.2-1.1c0-.1,0-0.2,0-0.3V24.1l-0.8.5-0.8.4-0.6.2H71a2.6,2.6,0,0,1,1,2.1v4.4c0,0.3,0,.6,0,0.8a3.2,3.2,0,0,1-.1.5l-0.2.6-0.5.5h3.3l-0.5-.6a5.4,5.4,0,0,1-.3-1.9V26.3L74,26h0.3l0.6,0.3,1,0.3,0.8-.3a0.9,0.9,0,0,0,.4-0.8A0.9,0.9,0,0,0,76.7,24.8Z" style="fill:#404041"/><path d="M84.2,26.9V26.6l-0.2-.4a3.3,3.3,0,0,0-1-1.2,3,3,0,0,0-1.8-.6,3.1,3.1,0,0,0-1.5.5,3.7,3.7,0,0,0-1.2,1.3,5.9,5.9,0,0,0-.9,3.3,5.8,5.8,0,0,0,.2,1.7,6.1,6.1,0,0,0,.7,1.5A4.2,4.2,0,0,0,79.7,34a3.1,3.1,0,0,0,1.7.5,2.8,2.8,0,0,0,1.3-.4,4.2,4.2,0,0,0,1.2-.9H82.3a2.8,2.8,0,0,1-2.1-1,2.6,2.6,0,0,1-1-1.7ZM78.9,30a8.8,8.8,0,0,1-.3-2.2,2.6,2.6,0,0,1,.2-0.9l0.5-.9a2.3,2.3,0,0,1,.9-0.7,1.5,1.5,0,0,1,1.1-.2l0.6,0.3a1.4,1.4,0,0,1,.5,1.2,2,2,0,0,1-.7,1.6l-0.5.4-0.5.4-0.4.3-0.4.3Z" style="fill:#404041"/><path d="M85.5,23v9.2a2.7,2.7,0,0,1-.8,2.1h3.3a5,5,0,0,1-.9-2.2V19.4l-1.3.7-1,.5a2,2,0,0,1,.6,1,3.7,3.7,0,0,1,.1,1.1C85.5,22.7,85.5,22.8,85.5,23Z" style="fill:#404041"/><path d="M12.7,37l-0.3-.4a34.9,34.9,0,0,1-1.3-3.5,20.5,20.5,0,0,0-1.3-3.5,7.9,7.9,0,0,0-1-1.5,4.6,4.6,0,0,0-1.3-1l1.8-.8,0.9-.5a3.4,3.4,0,0,0,1.5-2.8,2.8,2.8,0,0,0-1.5-2.5,5.5,5.5,0,0,0-2.9-.8H5.5l-1.7.3-1.4.4-1.1.3H1l0.7,0.7A2.6,2.6,0,0,1,2.1,23s0,0.3,0,.7,0,0.9,0,1.6V28c0,1.1,0,2.4,0,3.9a3.5,3.5,0,0,1-.3,1.2,3.6,3.6,0,0,1-.7,1.1H4.9A5.8,5.8,0,0,1,4,33a2.3,2.3,0,0,1-.3-1V27.4H6.2a1.7,1.7,0,0,1,.9.4,2.7,2.7,0,0,1,.6.9l0.3,1,0.3,1L9,32.7c0.2,0.6.3,1.2,0.6,1.8a5.2,5.2,0,0,0,2.7,3.1l1,0.2L13,37.5ZM6.2,26.8H3.8v-6l1-.3H5.7a4.6,4.6,0,0,1,2.6.7,2.9,2.9,0,0,1,1.4,2.5,2.5,2.5,0,0,1-.3,1.1,3,3,0,0,1-.7.9l-1.1.7Z" style="fill:#404041"/><path d="M16.1,24.5a4,4,0,0,0-3.2,1.7h0a5.6,5.6,0,0,0-1.2,3.6A4.8,4.8,0,0,0,13,33a5.3,5.3,0,0,0,1.5,1.1,3.6,3.6,0,0,0,1.6.4,4.4,4.4,0,0,0,3.3-1.7,5.5,5.5,0,0,0,1-1.7,5.5,5.5,0,0,0,.3-1.9,4.9,4.9,0,0,0-1.2-3.5A4.6,4.6,0,0,0,16.1,24.5Zm3.6,7a2.5,2.5,0,0,1-.5.8l-0.8.5-1,.2a4.7,4.7,0,0,1-3.2-1.4,4,4,0,0,1-1.5-3q0-2.7,3.3-2.7a3.6,3.6,0,0,1,2.7,1.6,5,5,0,0,1,1.3,2.9A2.4,2.4,0,0,1,19.7,31.5Z" style="fill:#404041"/><path d="M27.3,21.3a1,1,0,0,0-.7.3,1,1,0,0,0-.3.8,3.8,3.8,0,0,0,1.1,1.9,3.9,3.9,0,0,1,1.2,2.2q0,4.8-1.3,6.5a8.2,8.2,0,0,1-1.9-1.4,6.6,6.6,0,0,1-1.3-1.9,9,9,0,0,1-.6-1.8,8.5,8.5,0,0,1-.2-1.9q0-.2,0-0.6V24a6.1,6.1,0,0,1-2.2,1.1H21.1a8.7,8.7,0,0,1,.7,1.8l0.4,1.5a13.7,13.7,0,0,0,.6,1.6l0.6,1.3a8.8,8.8,0,0,0,2.5,2.6l0.5,0.3,0.2,0.2a2.2,2.2,0,0,1-.9,1.2l-0.7.5-0.6.3H22.2a1.1,1.1,0,0,0-.7.4,0.9,0.9,0,0,0-.3.6,0.8,0.8,0,0,0,.5.7,1.8,1.8,0,0,0,.9.2,3.4,3.4,0,0,0,2.1-.8,8.5,8.5,0,0,0,2-2.4A22.2,22.2,0,0,0,28,32.7a18.5,18.5,0,0,0,.8-3q0.2-1,.3-1.8a14.3,14.3,0,0,0,.1-1.6Q29.2,21.3,27.3,21.3Z" style="fill:#404041"/><path d="M37.5,24.7H35.2a4.8,4.8,0,0,0-4.6,3,6.1,6.1,0,0,0-.5,2.6,5.7,5.7,0,0,0,.6,2.5,3.5,3.5,0,0,0,1,1.4,2.2,2.2,0,0,0,1.3.4q0.8,0,2.8-1.6v1.4h2.3a1.8,1.8,0,0,1-.7-1.2V24.7Zm-1.6,7.8c0,0.4-.5.6-1.5,0.6a2.3,2.3,0,0,1-2.3-1.5,6.3,6.3,0,0,1-.4-2.4,4.8,4.8,0,0,1,.5-2.3,2.4,2.4,0,0,1,2.2-1.3,1.9,1.9,0,0,1,1.2.2,1.1,1.1,0,0,1,.3.9v5.8Z" style="fill:#404041"/><path d="M42.6,19.4l-1.4.7-1,.5a2,2,0,0,1,.6,1A6.9,6.9,0,0,1,41,23v9.2a2.7,2.7,0,0,1-.8,2.1h3.3a5,5,0,0,1-.9-2.2V19.4Z" style="fill:#404041"/><path d="M14.5,38.3H13.4L12.2,38a5.6,5.6,0,0,1-3-3.3L8.8,33.6h0l-0.2-.8L7.9,30.9,7.6,30,7.3,29a2.2,2.2,0,0,0-.5-0.8l-0.6-.3H4.2v4.1a1.9,1.9,0,0,0,.2.8A5.4,5.4,0,0,0,5.2,34l0.7,0.8H0L0.7,34a3.2,3.2,0,0,0,.6-1A3,3,0,0,0,1.6,32c0-1,0-1.9,0-2.7h0c0-.4,0-0.7,0-1.1V25.2c0-.2,0-0.5,0-0.7h0c0-.3,0-0.6,0-0.8s0-.7,0-0.7a2.2,2.2,0,0,0-.3-1.2l-0.6-.6-0.3-.3,0.4-.5H1.3L2.4,20l1.4-.4,1.7-.3H7.3a5.9,5.9,0,0,1,3.2.9,3.2,3.2,0,0,1,1.7,2.9,3.8,3.8,0,0,1-1.7,3.2l-1,.5-1.1.5,0.7,0.6a8.4,8.4,0,0,1,1.1,1.5A20.5,20.5,0,0,1,11.6,33a35.1,35.1,0,0,0,1.2,3.4L13,36.8l0.3,0.4ZM5.8,27.8H6.2l0.7,0.4a2.3,2.3,0,0,1,.5.8l0.3,1,0.3,1,0.6,1.9,0.3,0.8h0l0.4,1.1a5.5,5.5,0,0,0,2.9,3.3l1.2,0.3h0.9l-1-1L13,36.8l-0.2-.4A34.5,34.5,0,0,1,11.5,33a20.6,20.6,0,0,0-1.4-3.5A8.2,8.2,0,0,0,9.1,28l-0.7-.7h0l1.1-.5,1-.5a3.8,3.8,0,0,0,1.6-3.1,3.2,3.2,0,0,0-1.7-2.8,5.9,5.9,0,0,0-3.1-.9H5.5l-1.7.3-1.4.4-1.1.3H0.8l-0.3.4,0.3,0.2,0.6,0.6A2.2,2.2,0,0,1,1.7,23s0,0.3,0,.7,0,0.5,0,.8h0c0,0.2,0,.4,0,0.7V28c0,0.3,0,.7,0,1.1h0c0,0.8,0,1.8,0,2.7a3.1,3.1,0,0,1-.2,1.1,3.3,3.3,0,0,1-.6,1l-0.6.6H5.7l-0.5-.6a5.5,5.5,0,0,1-.8-1.2,2,2,0,0,1-.2-0.8V27.8H5.8ZM4.1,26.5V21.1H5.7a4.3,4.3,0,0,1,2.4.7,2.5,2.5,0,0,1,1.2,2.2,2.1,2.1,0,0,1-.2,1,2.7,2.7,0,0,1-.6.8l-1,.6-1.3.3h-2Zm0.1-5.3v5.2H6.1L7.4,26l1-.6A2.6,2.6,0,0,0,9,24.7a2,2,0,0,0,.2-0.9A2.4,2.4,0,0,0,8,21.6,4.2,4.2,0,0,0,5.7,21H4.2Z" style="fill:#231f20"/><path d="M16,34.9a4.1,4.1,0,0,1-1.8-.4,5.7,5.7,0,0,1-1.6-1.2,5.3,5.3,0,0,1-1.5-3.6,6.1,6.1,0,0,1,1.3-3.9A4.5,4.5,0,0,1,16.1,24a5,5,0,0,1,3.8,1.4,5.3,5.3,0,0,1,1.3,3.8,6,6,0,0,1-1.4,3.9A4.9,4.9,0,0,1,16,34.9Zm0-10.8a4.4,4.4,0,0,0-3.5,1.8,6,6,0,0,0-1.3,3.8,5.2,5.2,0,0,0,1.4,3.5,5.6,5.6,0,0,0,1.6,1.2,4,4,0,0,0,1.8.4,4.8,4.8,0,0,0,3.6-1.8,5.9,5.9,0,0,0,1.4-3.8,5.2,5.2,0,0,0-1.3-3.8A4.9,4.9,0,0,0,16.1,24.1Zm1.3,8.5a4.3,4.3,0,0,1-2.9-1.3A3.7,3.7,0,0,1,13,28.7c0-1,.3-2.4,2.9-2.4a3.3,3.3,0,0,1,2.4,1.5,4.7,4.7,0,0,1,1.2,2.7,2.1,2.1,0,0,1-.2.8l-0.5.7-0.7.4Zm-1.4-6.2c-2.5,0-2.8,1.3-2.8,2.3a3.6,3.6,0,0,0,1.4,2.6,4.2,4.2,0,0,0,2.9,1.2l0.8-.2,0.7-.4,0.4-.7a2,2,0,0,0,.2-0.8,4.6,4.6,0,0,0-1.2-2.6A3.2,3.2,0,0,0,15.9,26.4Z" style="fill:#231f20"/><path d="M22.7,39.1H22.6a2.1,2.1,0,0,1-1-.2,1.2,1.2,0,0,1-.8-1.1,1.3,1.3,0,0,1,.4-0.9,1.5,1.5,0,0,1,.9-0.5h2.2l0.5-.2,0.6-.5,0.7-.7-0.4-.3A9.3,9.3,0,0,1,23,31.8l-0.6-1.3a14,14,0,0,1-.6-1.7l-0.2-.8-0.2-.7a8.6,8.6,0,0,0-.6-1.7V25.5h0l-0.2-.3,0.3-.3a0.7,0.7,0,0,1,.5-0.2h0.1a5.8,5.8,0,0,0,2-1l0.8-.6v2.9a8,8,0,0,0,.2,1.8,8.6,8.6,0,0,0,.6,1.7,6.2,6.2,0,0,0,1.2,1.7l1.4,1.1c0.6-1.2,1-3.1,1-5.9A3.4,3.4,0,0,0,27,24.5a4,4,0,0,1-1.2-2.2,1.4,1.4,0,0,1,.4-1.1,1.4,1.4,0,0,1,1-.4c2.4,0,2.4,4.1,2.4,5.5a14.7,14.7,0,0,1-.1,1.6c-0.1.6-.2,1.2-0.3,1.9a19.2,19.2,0,0,1-.9,3.1,22.6,22.6,0,0,1-1.3,2.8A9.1,9.1,0,0,1,25,38.2,3.8,3.8,0,0,1,22.7,39.1Zm-0.1-2.7H22.1a1.5,1.5,0,0,0-.9.5,1.2,1.2,0,0,0-.4.8,1.2,1.2,0,0,0,.7,1,2,2,0,0,0,1,.2h0.1a3.8,3.8,0,0,0,2.3-.9,9,9,0,0,0,2.1-2.5,22.2,22.2,0,0,0,1.3-2.8,18.9,18.9,0,0,0,.9-3c0.1-.6.2-1.3,0.3-1.9a14.7,14.7,0,0,0,.1-1.6c0-1.3,0-5.4-2.3-5.4a1.3,1.3,0,0,0-1,.4,1.4,1.4,0,0,0-.4,1,4,4,0,0,0,1.2,2.1,3.5,3.5,0,0,1,1.1,2c0,2.8-.3,4.8-1,6H27.1a7.7,7.7,0,0,1-1.5-1.2,6.3,6.3,0,0,1-1.2-1.8,8.7,8.7,0,0,1-.6-1.8,8.1,8.1,0,0,1-.2-1.8V23.3l-0.7.5a5.9,5.9,0,0,1-2,1H20.7l-0.2.2,0.2,0.3h0.1v0.2a8.6,8.6,0,0,1,.6,1.7L21.7,28l0.2,0.8a14.2,14.2,0,0,0,.6,1.6l0.6,1.3a9.2,9.2,0,0,0,2.6,2.7l0.5,0.3h0a3,3,0,0,1-.7.8l-0.6.5-0.5.2H22.6Z" style="fill:#231f20"/><path d="M33.1,35a2.6,2.6,0,0,1-1.6-.5,3.9,3.9,0,0,1-1.2-1.5,6.1,6.1,0,0,1-.7-2.7,6.6,6.6,0,0,1,.5-2.8,5.2,5.2,0,0,1,5-3.2h2.7v9a1.9,1.9,0,0,0,.4.9l0.6,0.7H35.4V33.8A4.6,4.6,0,0,1,33.1,35Zm2.1-10.7a5.2,5.2,0,0,0-4.9,3.2,6.5,6.5,0,0,0-.5,2.8,6,6,0,0,0,.7,2.6,3.9,3.9,0,0,0,1.1,1.5,2.5,2.5,0,0,0,1.5.5,4.8,4.8,0,0,0,2.4-1.2h0.1v1h3.3l-0.5-.6a2,2,0,0,1-.4-0.9V24.2H35.2Zm-0.8,8.4a1.9,1.9,0,0,1-2-1.3,5.9,5.9,0,0,1-.4-2.2,4.5,4.5,0,0,1,.5-2.2,2,2,0,0,1,1.9-1.1,1.6,1.6,0,0,1,.9.2,0.8,0.8,0,0,1,.2.6v5.8h0A1.7,1.7,0,0,1,34.4,32.7ZM34.4,26A2,2,0,0,0,32.6,27a4.4,4.4,0,0,0-.5,2.1,5.8,5.8,0,0,0,.4,2.2,1.8,1.8,0,0,0,1.9,1.2,2.2,2.2,0,0,0,1.1-.2V26.6a0.8,0.8,0,0,0-.1-0.5A1.5,1.5,0,0,0,34.4,26Z" style="fill:#231f20"/><path d="M44.3,34.8h-5l0.6-.7a3.2,3.2,0,0,0,.6-1.8V23a6.6,6.6,0,0,0-.1-1.3,1.6,1.6,0,0,0-.5-0.7l-0.6-.5,0.7-.3,1-.5,1.3-.7,0.7-.4V32.1a4.7,4.7,0,0,0,.8,1.9Zm-4.8-.1h4.7l-0.3-.6a4.7,4.7,0,0,1-.8-2V18.7l-0.5.3-1.3.7-1,.5-0.5.3,0.5,0.4a1.6,1.6,0,0,1,.5.8,6.7,6.7,0,0,1,.1,1.3v9.2A3.3,3.3,0,0,1,40,34Z" style="fill:#231f20"/><path d="M61.3,34.8H54.2l0.9-.8a2.4,2.4,0,0,0,.7-0.9,2.9,2.9,0,0,0,.1-1.1,36.2,36.2,0,0,0-1-5H51.6V29a17.7,17.7,0,0,0-.3,2.5,2.7,2.7,0,0,0,.2,1.4l0.3,0.4v0.2L52,34l0.8,0.8h-6l0.9-.8a4.6,4.6,0,0,0,.9-1.1l0.3-.7,0.3-.9,1.2-5.4,0.9-4-0.6.2-0.7.4-0.8.6v-1a2.9,2.9,0,0,1,1.1-2.1,3.6,3.6,0,0,1,2.4-1,3.8,3.8,0,0,1,2.5.8,4.5,4.5,0,0,1,1.4,2.3l0.9,3.9,0.3,1.1,1,4.3a6.2,6.2,0,0,0,1.5,2.2l0.8,0.8h0.1Zm-6.9-.1h6.6L60.3,34a6.2,6.2,0,0,1-1.5-2.3l-1-4.3-0.3-1.1-0.9-3.9a4.4,4.4,0,0,0-1.3-2.3,3.7,3.7,0,0,0-2.5-.8,3.5,3.5,0,0,0-2.3.9,2.8,2.8,0,0,0-1.1,2V23l0.6-.5,0.7-.4,0.6-.2h0l-0.9,4-1.2,5.4-0.3.9-0.3.7a4.6,4.6,0,0,1-.9,1.1l-0.7.6h5.6L51.9,34l-0.5-.5V33.4L50.9,33a2.8,2.8,0,0,1-.2-1.5,17.7,17.7,0,0,1,.3-2.5V26.8H55a36.3,36.3,0,0,1,1,5,3,3,0,0,1-.1,1.2,2.5,2.5,0,0,1-.7,1Zm-2.7-9.4h0l0.7-3.4h1.1L54,22.5a6.4,6.4,0,0,1,.4,1.1l0.2,0.9,0.2,0.8H51.8Zm0.7-3.4-0.6,3.3h2.7l-0.2-.8-0.2-.8a6.2,6.2,0,0,0-.4-1.1L53.5,22h-1Z" style="fill:#231f20"/><path d="M63.1,35A2.4,2.4,0,0,1,61,34a2.6,2.6,0,0,1-.4-0.9,5.8,5.8,0,0,1-.1-1.1h0l0.6-5.5a1.2,1.2,0,0,0-.3-0.9l-0.2-.2h0l-1-.7h1.2a6.9,6.9,0,0,0,2.7-.9l0.8-.5-1.1,8a1.6,1.6,0,0,0,.5,1.3,2,2,0,0,0,1.2.3,5.9,5.9,0,0,0,1.8-.6V26.4a1.4,1.4,0,0,0-.3-0.6l-0.4-.4L64.9,25l1-.3,2.6-1,0.6-.3v9.1a1.6,1.6,0,0,0,.1.6l0.6,0.9,0.4,0.6H66.6V33.9A11.1,11.1,0,0,1,63.1,35ZM59.8,24.7l0.8,0.6h0l0.2,0.2a1.3,1.3,0,0,1,.3.9L60.6,32h0a5.8,5.8,0,0,0,.1,1.1,2.5,2.5,0,0,0,.4.9,2.3,2.3,0,0,0,2,1,11.3,11.3,0,0,0,3.4-1.1h0.1v0.9H70l-0.3-.5-0.6-1a1.7,1.7,0,0,1-.1-0.7v-9l-0.5.2-2.6,1-0.8.3,0.7,0.4,0.5,0.4a1.5,1.5,0,0,1,.3.6v5.9h0a6.1,6.1,0,0,1-1.8.6,2,2,0,0,1-1.2-.3,1.7,1.7,0,0,1-.5-1.4l1.1-7.8-0.7.4a7,7,0,0,1-2.7.9h-1Z" style="fill:#231f20"/><path d="M75.7,34.8H70.5l0.5-.6,0.3-.4h0.1l0.2-.5a2.9,2.9,0,0,0,0-.4c0-.2,0-0.5,0-0.8V27.4a2.2,2.2,0,0,0-.8-1.7l-0.5-.4,0.6-.3h0.4l0.6-.2,0.7-.3,0.8-.5,0.7-.5v0.9h0c0,0.1,0,.2,0,0.4s0,0.2,0,.3a3.4,3.4,0,0,1,1.8-.9,2,2,0,0,1,1.2.4,1.4,1.4,0,0,1,.6,1.2,1.4,1.4,0,0,1-.6,1.1,2,2,0,0,1-1.1.4l-1.2-.3-0.5-.3H74v5.3a4.8,4.8,0,0,0,.3,1.7L74.8,34Zm-5.1-.1h4.9L74.7,34l-0.4-.5a4.9,4.9,0,0,1-.3-1.7V26.4h0.3l0.5,0.3L75.9,27a1.9,1.9,0,0,0,1-.3,1.3,1.3,0,0,0,.6-1.1,1.3,1.3,0,0,0-.6-1.1,1.9,1.9,0,0,0-1.1-.4,3.4,3.4,0,0,0-1.9.9H73.9a3.9,3.9,0,0,1,0-.4c0-.1,0-0.3,0-0.4V23.4l-0.6.4-0.8.5-0.7.3-0.6.2H70.8l-0.5.2,0.4,0.4a2.2,2.2,0,0,1,.9,1.8v4.4c0,0.3,0,.6,0,0.8a2.7,2.7,0,0,1-.1.4l-0.2.5H71.3l-0.3.4Z" style="fill:#231f20"/><path d="M81.3,34.9a3.6,3.6,0,0,1-1.9-.5A4.7,4.7,0,0,1,78,33a6.6,6.6,0,0,1-.8-1.6,6.3,6.3,0,0,1-.3-1.8A6.4,6.4,0,0,1,78,26a4.1,4.1,0,0,1,1.3-1.4A3.5,3.5,0,0,1,81,24h0.1a3.4,3.4,0,0,1,2,.6A3.8,3.8,0,0,1,84.2,26l0.2,0.4,0.2,0.3V27h0l-5,3.9a3,3,0,0,0,.9,1.2,2.4,2.4,0,0,0,1.7.9h1.4l0.5,0.7h0a4.7,4.7,0,0,1-1.3,1A3.3,3.3,0,0,1,81.3,34.9ZM81.1,24.1H81a3.4,3.4,0,0,0-1.7.5A4,4,0,0,0,78,26a6.3,6.3,0,0,0-1,3.5,6.2,6.2,0,0,0,.3,1.8,6.5,6.5,0,0,0,.7,1.6,4.6,4.6,0,0,0,1.4,1.4,3.5,3.5,0,0,0,1.9.5,3.2,3.2,0,0,0,1.5-.4,4.6,4.6,0,0,0,1.3-.9l-0.4-.6H82.3a2.5,2.5,0,0,1-1.8-.9,2.9,2.9,0,0,1-.9-1.3h0l5-3.9V26.7l-0.2-.3L84.2,26a3.7,3.7,0,0,0-1.1-1.3A3.4,3.4,0,0,0,81.1,24.1Zm-1.9,5.4h0a9.3,9.3,0,0,1-.1-1.6,2.2,2.2,0,0,1,.2-0.8l0.4-.8a2,2,0,0,1,.8-0.6l0.6-.2h0.2l0.4,0.2a1.1,1.1,0,0,1,.4,1,1.6,1.6,0,0,1-.6,1.3l-0.5.3-0.5.4-0.4.3-0.2.2H79.7Zm1.8-4-0.6.2a1.9,1.9,0,0,0-.7.6l-0.4.8a2.1,2.1,0,0,0-.2.8,9.2,9.2,0,0,0,.1,1.5l0.4-.3h0.1l0.2-.2,0.4-.3,0.5-.4,0.5-.3a1.5,1.5,0,0,0,.5-1.2,1,1,0,0,0-.3-0.9l-0.4-.2H81Z" style="fill:#231f20"/><path d="M88.7,34.8h-5l0.6-.7h0a3.2,3.2,0,0,0,.6-1.8V22.6a3.2,3.2,0,0,0-.1-0.9,1.6,1.6,0,0,0-.5-0.7l-0.6-.5,0.7-.3,1-.5,1.3-.7,0.7-.4V32.1a4.7,4.7,0,0,0,.8,1.9Zm-4.8-.1h4.7l-0.3-.6a4.7,4.7,0,0,1-.8-2V18.7l-0.5.3-1.3.7-1,.5-0.5.3,0.5,0.4a1.6,1.6,0,0,1,.5.8,3.2,3.2,0,0,1,.1.9v9.6a3.3,3.3,0,0,1-.6,1.8h0Z" style="fill:#231f20"/><path d="M79.2,10.3a3.5,3.5,0,0,1,1.7.4A3.1,3.1,0,0,1,82.2,12a3.4,3.4,0,0,1,0,3.4,3.1,3.1,0,0,1-1.2,1.2,3.4,3.4,0,0,1-3.3,0,3.1,3.1,0,0,1-1.2-1.2,3.4,3.4,0,0,1,0-3.4,3.1,3.1,0,0,1,1.3-1.2A3.5,3.5,0,0,1,79.2,10.3Zm0,0.6a2.9,2.9,0,0,0-1.4.4,2.6,2.6,0,0,0-1,1,2.8,2.8,0,0,0,0,2.8,2.6,2.6,0,0,0,1,1,2.8,2.8,0,0,0,2.8,0,2.6,2.6,0,0,0,1-1,2.8,2.8,0,0,0,0-2.8,2.6,2.6,0,0,0-1-1A2.9,2.9,0,0,0,79.2,10.9Zm-1.5,4.7V11.9h2.2l0.5,0.3a0.9,0.9,0,0,1,.2.5,1,1,0,0,1-.3.7,1.1,1.1,0,0,1-.7.3l0.3,0.2,0.5,0.7,0.4,0.7H80.1L79.8,15a2.9,2.9,0,0,0-.6-0.8H78.4v1.5H77.8Zm0.6-2h0.7l0.7-.2a0.5,0.5,0,0,0,.2-0.4,0.5,0.5,0,0,0-.1-0.3l-0.2-.2H78.4v1.1Z"/></svg>