<?xml version="1.0" encoding="utf-8"?>
<!-- Generator: Adobe Illustrator 22.0.1, SVG Export Plug-In . SVG Version: 6.00 Build 0)  -->
<svg version="1.1" id="Слой_1" xmlns="http://www.w3.org/2000/svg" xmlns:xlink="http://www.w3.org/1999/xlink" x="0px" y="0px"
	 viewBox="0 0 63.3 43.1" style="enable-background:new 0 0 63.3 43.1;" xml:space="preserve">
<style type="text/css">
	.st0{fill:#986732;}
</style>
<title>logo</title>
<path class="st0" d="M52,18.7c0.1,0.8,0.1,1.5,0.1,2.3c0,11.6-9.4,21-21,21s-21-9.4-21-21c0-0.8,0-1.5,0.1-2.3h6.7l7.2,18l6.3-15.2
	l6.1,15.2l7.7-18H52z M50.2,2.9h1.2c0.1-0.1,0.2-0.2,0.2-0.3V2.2L51.4,2h-1.2V2.9z M49.7,4.7V1.6h1.9L52,2c0.1,0.2,0.1,0.3,0.1,0.5
	c0,0.2-0.1,0.4-0.2,0.6l-0.6,0.3l0.3,0.2L52,4.1l0.4,0.6h-0.7l-0.3-0.5l-0.5-0.7h-0.7v1.2H49.7z M51,0.7c-0.4,0-0.8,0.1-1.2,0.3
	c-0.4,0.2-0.7,0.5-0.9,0.9c-0.4,0.7-0.4,1.7,0,2.4c0.2,0.4,0.5,0.7,0.9,0.9c0.7,0.4,1.7,0.4,2.4,0c0.4-0.2,0.7-0.5,0.9-0.9
	c0.4-0.7,0.4-1.7,0-2.4c-0.2-0.4-0.5-0.7-0.9-0.9C51.8,0.8,51.4,0.7,51,0.7z M51,0.2c0.5,0,1,0.1,1.4,0.4c0.5,0.2,0.9,0.6,1.1,1.1
	c0.3,0.4,0.4,0.9,0.4,1.4c0,0.5-0.1,1-0.4,1.4c-0.3,0.5-0.6,0.8-1.1,1.1c-0.9,0.5-2,0.5-2.9,0C49,5.3,48.7,5,48.4,4.5
	c-0.5-0.9-0.5-2,0-2.9c0.3-0.4,0.7-0.8,1.2-1C50,0.3,50.5,0.2,51,0.2z M31.1,0c9.6,0,18,6.6,20.4,15.9h-9.9L39,22.7L33.1,7l-6.5,16
	L24,15.9H10.7C13.1,6.6,21.5,0,31.1,0z"/>
</svg>
